<svg width="39" height="31" viewBox="0 0 39 31" fill="none" xmlns="http://www.w3.org/2000/svg">
<path d="M37.2305 11.0215C37.8047 11.9238 38.0918 12.8965 38.0918 13.9395C38.0918 14.9824 37.8047 15.9492 37.2305 16.8398C36.7617 17.5898 36.1465 18.4512 35.3848 19.4238C34.6348 20.3848 33.7324 21.3574 32.6777 22.3418C31.623 23.3262 30.416 24.2402 29.0566 25.084C27.709 25.916 26.1973 26.5898 24.5215 27.1055C22.8574 27.6211 21.0293 27.8789 19.0371 27.8789C18.2637 27.8789 17.5078 27.8379 16.7695 27.7559C16.043 27.6621 15.334 27.5332 14.6426 27.3691L9.14062 30.1992C8.71875 30.4219 8.29102 30.4805 7.85742 30.375C7.43555 30.2695 7.07812 30.0469 6.78516 29.707C6.50391 29.3789 6.36328 28.9805 6.36328 28.5117V23.1855C5.0625 22.1074 3.95508 21 3.04102 19.8633C2.12695 18.7266 1.39453 17.7188 0.84375 16.8398C0.28125 15.9492 0 14.9824 0 13.9395C0 12.8965 0.28125 11.9238 0.84375 11.0215C1.3125 10.2832 1.92773 9.43359 2.68945 8.47266C3.45117 7.5 4.35352 6.52148 5.39648 5.53711C6.45117 4.55273 7.65234 3.64453 9 2.8125C10.3594 1.96875 11.8711 1.28906 13.5352 0.773438C15.2109 0.257813 17.0449 0 19.0371 0C21.0293 0 22.8574 0.257813 24.5215 0.773438C26.1973 1.28906 27.709 1.96875 29.0566 2.8125C30.416 3.64453 31.623 4.55273 32.6777 5.53711C33.7324 6.52148 34.6348 7.5 35.3848 8.47266C36.1465 9.43359 36.7617 10.2832 37.2305 11.0215ZM19.0371 2.53125C16.8926 2.53125 14.9531 2.87109 13.2188 3.55078C11.4844 4.23047 9.95508 5.0918 8.63086 6.13477C7.30664 7.17773 6.17578 8.26172 5.23828 9.38672C4.30078 10.5 3.55078 11.4961 2.98828 12.375C2.33203 13.418 2.33203 14.4551 2.98828 15.4863C3.52734 16.3418 4.24805 17.3203 5.15039 18.4219C6.05273 19.5234 7.14258 20.5781 8.41992 21.5859L8.91211 21.9551V27.4746L14.3438 24.6797L14.8184 24.8027C15.4629 24.9785 16.1367 25.1133 16.8398 25.207C17.543 25.3008 18.2754 25.3477 19.0371 25.3477C21.1934 25.3477 23.1328 25.0078 24.8555 24.3281C26.5898 23.6484 28.1191 22.7871 29.4434 21.7441C30.7793 20.7012 31.916 19.623 32.8535 18.5098C33.791 17.3848 34.5352 16.377 35.0859 15.4863C35.7422 14.4551 35.7422 13.418 35.0859 12.375C34.5352 11.4961 33.791 10.5 32.8535 9.38672C31.916 8.26172 30.7793 7.17773 29.4434 6.13477C28.1191 5.0918 26.5898 4.23047 24.8555 3.55078C23.1328 2.87109 21.1934 2.53125 19.0371 2.53125Z" fill="white"/>
</svg>
