<svg width="39" height="34" viewBox="0 0 39 34" fill="none" xmlns="http://www.w3.org/2000/svg">
<path d="M19.1602 24.0996C18.668 24.0996 18.2461 23.9297 17.8945 23.5898C17.5547 23.2383 17.3848 22.8164 17.3848 22.3242V10.7051C17.3848 10.2129 17.5605 9.79687 17.9121 9.45703C18.2637 9.10547 18.6797 8.92969 19.1602 8.92969C19.6523 8.92969 20.0684 9.10547 20.4082 9.45703C20.7598 9.80859 20.9355 10.2246 20.9355 10.7051V22.3242C20.9355 22.8164 20.7598 23.2383 20.4082 23.5898C20.0684 23.9297 19.6523 24.0996 19.1602 24.0996ZM20.9355 27.3691C20.9355 27.8613 20.7598 28.2773 20.4082 28.6172C20.0684 28.9688 19.6523 29.1445 19.1602 29.1445C18.668 29.1445 18.2461 28.9688 17.8945 28.6172C17.5547 28.2773 17.3848 27.8613 17.3848 27.3691C17.3848 26.877 17.5547 26.4609 17.8945 26.1211C18.2461 25.7695 18.668 25.5938 19.1602 25.5938C19.6523 25.5938 20.0684 25.7695 20.4082 26.1211C20.7598 26.4609 20.9355 26.877 20.9355 27.3691ZM16.5938 1.63477C16.9805 0.978516 17.502 0.544922 18.1582 0.333984C18.8262 0.111328 19.4883 0.111328 20.1445 0.333984C20.8125 0.544922 21.3398 0.978516 21.7266 1.63477L37.7754 29.4258C38.1504 30.082 38.2676 30.75 38.127 31.4297C37.9863 32.1211 37.6523 32.7012 37.125 33.1699C36.6094 33.6387 35.9707 33.873 35.209 33.873H3.12891C2.36719 33.873 1.72266 33.6387 1.19531 33.1699C0.679688 32.7012 0.351562 32.1211 0.210938 31.4297C0.0703125 30.75 0.181641 30.082 0.544922 29.4258H0.5625L16.5938 1.63477ZM18.791 2.91797L2.75977 30.6914C2.66602 30.832 2.66016 30.9727 2.74219 31.1133C2.83594 31.2656 2.96484 31.3418 3.12891 31.3418H35.209C35.3613 31.3418 35.4785 31.2715 35.5605 31.1309C35.6543 30.9902 35.6602 30.8438 35.5781 30.6914L19.5469 2.91797H19.5293C19.4473 2.76562 19.3242 2.68945 19.1602 2.68945C18.9961 2.68945 18.873 2.76562 18.791 2.91797Z" fill="white"/>
</svg>
