<svg width="36" height="32" viewBox="0 0 36 32" fill="none" xmlns="http://www.w3.org/2000/svg">
<path d="M16.2773 15.3457L15.6094 16.0137C15.3164 16.3066 15.1699 16.6641 15.1699 17.0859C15.1699 17.5195 15.3164 17.8828 15.6094 18.1758L16.2773 18.8438C16.3828 18.9492 16.5059 19.002 16.6465 19.002H17.1914C17.5312 19.002 17.7012 19.166 17.7012 19.4941V22.2715C17.7012 22.6113 17.8711 22.7812 18.2109 22.7812H18.7559C18.8965 22.7812 19.0195 22.7285 19.125 22.623L19.6348 22.1133C20.0332 21.7148 20.2324 21.2344 20.2324 20.6719V19.0898C20.2324 19.0078 20.25 18.9316 20.2852 18.8613L21.4453 16.541C21.4805 16.4824 21.498 16.4121 21.498 16.3301V15.6797C21.498 15.3516 21.6621 15.1875 21.9902 15.1875H22.2363C22.5762 15.1875 22.7461 15.3516 22.7461 15.6797V15.9258C22.7461 16.2656 22.916 16.4355 23.2559 16.4355H23.4844C23.8242 16.4355 23.9941 16.2656 23.9941 15.9258V15.6797C23.9941 15.3516 24.1641 15.1875 24.5039 15.1875H24.75C25.0898 15.1875 25.2598 15.3516 25.2598 15.6797V15.9258C25.2598 16.2656 25.4238 16.4355 25.752 16.4355H27.1758C27.4102 16.4355 27.5684 16.3301 27.6504 16.1191L28.7578 13.3418C28.8281 13.1777 28.8105 13.0195 28.7051 12.8672C28.6113 12.7148 28.4766 12.6387 28.3008 12.6387C27.9609 12.6387 27.791 12.4746 27.791 12.1465V10.6348C27.791 10.2949 27.9609 10.125 28.3008 10.125H28.5293C28.8691 10.125 29.0391 10.2949 29.0391 10.6348V10.7578C29.0391 11.1797 29.25 11.3906 29.6719 11.3906C30.0938 11.3906 30.3047 11.1797 30.3047 10.7578V8.29688C30.3047 7.75781 30.1113 7.30078 29.7246 6.92578C29.3379 6.53906 28.875 6.3457 28.3359 6.3457H28.3008C27.9609 6.3457 27.791 6.50977 27.791 6.83789V7.08398C27.791 7.42383 27.6211 7.59375 27.2812 7.59375H25.7695C25.4297 7.59375 25.2598 7.42383 25.2598 7.08398C25.2598 6.87305 25.1836 6.69727 25.0312 6.55664C24.8906 6.4043 24.7148 6.32812 24.5039 6.32812H23.9941C23.6543 6.32812 23.3555 6.45117 23.0977 6.69727C22.8516 6.94336 22.7285 7.24219 22.7285 7.59375V7.62891C22.7285 7.76953 22.6758 7.89844 22.5703 8.01562L20.3555 10.002C20.2617 10.084 20.1445 10.125 20.0039 10.125H18.1758C17.8477 10.125 17.6836 10.2949 17.6836 10.6348V10.8809C17.6836 11.209 17.5137 11.373 17.1738 11.373H16.9277C16.5879 11.373 16.418 11.543 16.418 11.8828V13.3945C16.418 13.7344 16.5879 13.9043 16.9277 13.9043H17.1738C17.5137 13.9043 17.6836 14.0742 17.6836 14.4141V14.6426C17.6836 14.9824 17.5137 15.1523 17.1738 15.1523H16.6289L16.5938 15.1699C16.4414 15.2402 16.3359 15.2988 16.2773 15.3457ZM10.7402 24.0645C11.1621 24.0645 11.373 23.8535 11.373 23.4316V22.8516C11.373 21.9727 11.7656 21.334 12.5508 20.9355L13.3242 20.5488C13.7109 20.3496 13.9043 20.0449 13.9043 19.6348C13.9043 19.2012 13.7109 18.8965 13.3242 18.7207L11.8477 17.9824C11.543 17.8184 11.2031 17.7363 10.8281 17.7363H10.2656C10.1602 17.7363 10.0664 17.7012 9.98438 17.6309L7.68164 15.3281C7.59961 15.2461 7.55859 15.1523 7.55859 15.0469V14.3262C7.55859 14.0684 7.69336 13.9395 7.96289 13.9395H8.4375C8.70703 13.9395 8.8418 14.0684 8.8418 14.3262V14.5723C8.8418 14.9941 9.05273 15.2051 9.47461 15.2051C9.89648 15.2051 10.1074 14.9941 10.1074 14.5723V14.3262C10.1074 14.0684 10.2363 13.9395 10.4941 13.9395C11.0801 13.9395 11.5781 13.7344 11.9883 13.3242L12.3574 12.9551C12.5449 12.7676 12.5449 12.5801 12.3574 12.3926L11.4785 11.5137C11.4082 11.4434 11.373 11.3496 11.373 11.2324V10.7754C11.373 10.3535 11.1621 10.1426 10.7402 10.1426C10.3184 10.1426 10.1074 10.3535 10.1074 10.7754C10.1074 11.1973 9.89648 11.4082 9.47461 11.4082C9.05273 11.4082 8.8418 11.1973 8.8418 10.7754V10.5293C8.8418 10.2715 8.9707 10.1426 9.22852 10.1426C9.50977 10.1426 9.63867 10.0078 9.61523 9.73828L9.59766 9.28125C9.57422 9.01172 9.70312 8.87695 9.98438 8.87695H10.9688C11.2383 8.87695 11.373 8.74805 11.373 8.49023V8.24414C11.373 7.82227 11.584 7.61133 12.0059 7.61133C12.4277 7.61133 12.6387 7.82227 12.6387 8.24414V10.793C12.6387 11.2148 12.8496 11.4258 13.2715 11.4258C13.6934 11.4258 13.9043 11.2148 13.9043 10.793V10.3184C13.9043 10.2012 13.9395 10.1074 14.0098 10.0371L14.5371 9.50977C14.959 9.08789 15.1699 8.58398 15.1699 7.99805C15.1699 7.54102 15.0059 7.1543 14.6777 6.83789C14.3613 6.50977 13.9746 6.3457 13.5176 6.3457H11.4961C10.5703 6.3457 9.79102 6.68555 9.1582 7.36523L8.36719 8.20898C7.95703 8.6543 7.44727 8.87695 6.83789 8.87695H6.69727C6.43945 8.87695 6.31055 8.74805 6.31055 8.49023C6.31055 8.25586 6.22266 8.05078 6.04688 7.875C5.88281 7.69922 5.67773 7.61133 5.43164 7.61133H4.6582C4.41211 7.61133 4.20117 7.69922 4.02539 7.875C3.86133 8.05078 3.7793 8.25586 3.7793 8.49023V8.96484C3.7793 9.75 3.49805 10.4238 2.93555 10.9863L2.63672 11.2852C2.56641 11.3672 2.53125 11.4609 2.53125 11.5664V11.7422C2.53125 11.918 2.60742 12.041 2.75977 12.1113C2.92383 12.1699 3.07031 12.1348 3.19922 12.0059L4.79883 10.4238C4.97461 10.2363 5.18555 10.1426 5.43164 10.1426C5.5957 10.1426 5.58984 10.2363 5.41406 10.4238C5.34375 10.5059 5.26758 10.5996 5.18555 10.7051C5.10352 10.8105 5.0625 10.9277 5.0625 11.0566V14.0449C5.0625 14.3027 5.20898 14.5547 5.50195 14.8008C5.79492 15.0469 6.09961 15.2754 6.41602 15.4863C6.56836 15.5918 6.70898 15.6914 6.83789 15.7852C6.9668 15.8789 7.07227 15.9668 7.1543 16.0488L8.73633 17.6309C8.81836 17.7129 8.85938 17.8066 8.85938 17.9121V19.3359C8.85938 19.9805 9.08203 20.5254 9.52734 20.9707L10.0195 21.4453C10.0898 21.5273 10.125 21.6211 10.125 21.7266V23.4668C10.1133 23.6309 10.166 23.7715 10.2832 23.8887C10.4121 24.0059 10.5645 24.0645 10.7402 24.0645ZM25.6816 19.459C25.4238 19.1426 25.2949 18.7852 25.2949 18.3867V18.123C25.2949 17.877 25.4297 17.7363 25.6992 17.7012H26.1738C26.4434 17.7012 26.5781 17.8301 26.5781 18.0879C26.5781 18.2754 26.6602 18.4043 26.8242 18.4746C26.9883 18.5332 27.1289 18.498 27.2461 18.3691L27.7207 17.8418C27.8027 17.7598 27.9023 17.7188 28.0195 17.7188H29.1094C29.4492 17.7188 29.7422 17.8418 29.9883 18.0879C30.2461 18.334 30.375 18.6328 30.375 18.9844V20.0391C30.375 20.168 30.3223 20.2734 30.2168 20.3555C30.123 20.4258 30.0176 20.4492 29.9004 20.4258L29.6191 20.3555C29.2793 20.2852 29.1094 20.0742 29.1094 19.7227C29.1094 19.5234 29.0332 19.3594 28.8809 19.2305C28.7402 19.1016 28.5703 19.043 28.3711 19.0547L28.1777 19.0898C27.9551 19.1133 27.8438 19.2422 27.8438 19.4766V19.9512C27.8438 20.1621 27.7383 20.2852 27.5273 20.3203C26.8945 20.4727 26.3672 20.291 25.9453 19.7754L25.6816 19.459ZM26.5781 23.4492C26.5781 23.8711 26.7891 24.082 27.2109 24.082H29.7422C30.1641 24.082 30.375 23.8711 30.375 23.4492V22.2363C30.375 22.0371 30.3047 21.873 30.1641 21.7441C30.0234 21.6035 29.8535 21.5332 29.6543 21.5332H27.6152C27.334 21.5332 27.0879 21.6387 26.877 21.8496C26.6777 22.0488 26.5781 22.2949 26.5781 22.5879V23.4492ZM0.667969 2.33789L8.8418 0L17.7188 2.53125L26.5781 0L34.8223 2.33789C35.2559 2.45508 35.4727 2.73047 35.4727 3.16406V30.8145C35.4727 31.0957 35.3613 31.3242 35.1387 31.5C34.916 31.6758 34.6699 31.7285 34.4004 31.6582L26.5781 29.1445L17.7188 31.6758L8.8418 29.127L1.07227 31.6582C0.802734 31.7285 0.556641 31.6758 0.333984 31.5C0.111328 31.3242 0 31.0957 0 30.8145V3.16406C0 2.73047 0.222656 2.45508 0.667969 2.33789ZM17.7188 29.127L26.5957 26.6133V26.6484L32.4668 28.4414C32.748 28.5117 33 28.459 33.2227 28.2832C33.457 28.1074 33.5742 27.8789 33.5742 27.5977V5.0625C33.5742 4.62891 33.3574 4.35352 32.9238 4.23633L26.5781 2.56641V2.54883L17.7188 5.04492L8.8418 2.54883L2.47852 4.23633C2.04492 4.35352 1.82812 4.62891 1.82812 5.0625V27.5801C1.82812 27.8613 1.93945 28.0898 2.16211 28.2656C2.39648 28.4414 2.6543 28.4883 2.93555 28.4062L8.8418 26.6133L17.7188 29.127Z" fill="white"/>
</svg>
