<svg preserveAspectRatio="none" width="100%" height="100%" overflow="visible" style="display: block;" viewBox="0 0 42.112 42.112" fill="none" xmlns="http://www.w3.org/2000/svg">
<g id="Group 42">
<circle id="Ellipse 14" cx="21.056" cy="21.056" r="21.056" fill="var(--fill-0, #0E7159)"/>
<g id="tabler:notes">
<path id="Vector" d="M18.6986 16.5666H24.552M18.6986 20.6134H24.552M18.6986 24.6602H22.6009M14.7964 14.5432C14.7964 14.0065 15.0019 13.4919 15.3678 13.1124C15.7337 12.733 16.23 12.5198 16.7475 12.5198H26.5032C27.0206 12.5198 27.5169 12.733 27.8828 13.1124C28.2487 13.4919 28.4543 14.0065 28.4543 14.5432V28.707C28.4543 29.2436 28.2487 29.7583 27.8828 30.1377C27.5169 30.5172 27.0206 30.7304 26.5032 30.7304H16.7475C16.23 30.7304 15.7337 30.5172 15.3678 30.1377C15.0019 29.7583 14.7964 29.2436 14.7964 28.707V14.5432Z" stroke="var(--stroke-0, white)" stroke-width="0.853621" stroke-linecap="round" stroke-linejoin="round"/>
</g>
</g>
</svg>
