<svg preserveAspectRatio="none" width="100%" height="100%" overflow="visible" style="display: block;" viewBox="0 0 42.112 42.112" fill="none" xmlns="http://www.w3.org/2000/svg">
<g id="Group 42">
<circle id="Ellipse 14" cx="21.056" cy="21.056" r="21.056" fill="var(--fill-0, #0E7159)"/>
<g id="uit:calender">
<path id="Vector" d="M28.7392 14.0373H25.8938V12.6146C25.8938 12.4888 25.8438 12.3682 25.7549 12.2793C25.666 12.1903 25.5453 12.1404 25.4196 12.1404C25.2938 12.1404 25.1732 12.1903 25.0842 12.2793C24.9953 12.3682 24.9453 12.4888 24.9453 12.6146V14.0373H18.3061V12.6146C18.3061 12.4888 18.2561 12.3682 18.1672 12.2793C18.0782 12.1903 17.9576 12.1404 17.8318 12.1404C17.7061 12.1404 17.5854 12.1903 17.4965 12.2793C17.4076 12.3682 17.3576 12.4888 17.3576 12.6146V14.0373H14.5122C13.8835 14.0381 13.2809 14.2881 12.8364 14.7326C12.3918 15.1772 12.1418 15.7798 12.141 16.4085V28.7386C12.1418 29.3672 12.3918 29.9699 12.8364 30.4144C13.2809 30.8589 13.8835 31.109 14.5122 31.1097H28.7392C29.3681 31.1097 29.9712 30.8599 30.4159 30.4152C30.8606 29.9706 31.1104 29.3674 31.1104 28.7386V16.4085C31.1104 15.7796 30.8606 15.1765 30.4159 14.7318C29.9712 14.2871 29.3681 14.0373 28.7392 14.0373ZM30.1619 28.7386C30.1619 29.1159 30.012 29.4778 29.7452 29.7446C29.4784 30.0114 29.1165 30.1613 28.7392 30.1613H14.5122C14.1349 30.1613 13.773 30.0114 13.5062 29.7446C13.2394 29.4778 13.0895 29.1159 13.0895 28.7386V20.6766H30.1619V28.7386ZM30.1619 19.7281H13.0895V16.4085C13.0895 15.6232 13.725 14.9858 14.5122 14.9858H17.3576V16.4085C17.3576 16.5343 17.4076 16.6549 17.4965 16.7438C17.5854 16.8328 17.7061 16.8827 17.8318 16.8827C17.9576 16.8827 18.0782 16.8328 18.1672 16.7438C18.2561 16.6549 18.3061 16.5343 18.3061 16.4085V14.9858H24.9453V16.4085C24.9453 16.5343 24.9953 16.6549 25.0842 16.7438C25.1732 16.8328 25.2938 16.8827 25.4196 16.8827C25.5453 16.8827 25.666 16.8328 25.7549 16.7438C25.8438 16.6549 25.8938 16.5343 25.8938 16.4085V14.9858H28.7392C29.1165 14.9858 29.4784 15.1357 29.7452 15.4025C30.012 15.6693 30.1619 16.0312 30.1619 16.4085V19.7281Z" fill="var(--fill-0, white)"/>
</g>
</g>
</svg>
