<svg preserveAspectRatio="none" width="100%" height="100%" overflow="visible" style="display: block;" viewBox="0 0 42.112 42.112" fill="none" xmlns="http://www.w3.org/2000/svg">
<g id="Group 42">
<circle id="Ellipse 14" cx="21.056" cy="21.056" r="21.056" fill="var(--fill-0, #0E7159)"/>
<g id="ion:rocket-outline">
<path id="Vector" d="M30.7247 12.5391C30.7507 12.5658 30.7685 12.5993 30.7761 12.6358C31.3585 15.174 29.2649 20.6363 26.2248 23.6595C25.6879 24.1997 25.1049 24.692 24.4824 25.1307C24.5624 26.0599 24.4913 26.9887 24.1445 27.7845C23.1633 30.0288 20.5802 30.6819 19.4731 30.8597C19.4126 30.8695 19.3506 30.8653 19.2919 30.8473C19.2333 30.8293 19.1796 30.798 19.1349 30.7559C19.0903 30.7139 19.0559 30.6621 19.0344 30.6046C19.013 30.5472 19.005 30.4855 19.0112 30.4245L19.4065 26.8233C19.1362 26.8206 18.8663 26.8043 18.5977 26.7744C18.4108 26.7557 18.2363 26.6723 18.1042 26.5387L16.7087 25.1431C16.5752 25.0112 16.4918 24.8368 16.473 24.6501C16.4429 24.3799 16.4266 24.1083 16.4241 23.8365L12.8198 24.2322C12.7587 24.2384 12.6969 24.2305 12.6394 24.2091C12.5818 24.1877 12.5299 24.1532 12.4878 24.1085C12.4457 24.0638 12.4144 24.01 12.3964 23.9513C12.3784 23.8925 12.3742 23.8304 12.3841 23.7698C12.5664 22.6632 13.2195 20.0854 15.4642 19.0984C16.2592 18.7517 17.1928 18.6805 18.1265 18.765C18.5656 18.1443 19.0578 17.5629 19.5976 17.0275C22.6266 14.0007 28.2116 11.8938 30.6293 12.4851C30.6656 12.4936 30.6987 12.5124 30.7247 12.5391Z" stroke="var(--stroke-0, white)" stroke-width="0.853621" stroke-linecap="round" stroke-linejoin="round"/>
<path id="Vector_2" d="M15.1182 25.8932C14.675 25.9476 14.2627 26.1485 13.9467 26.464C13.1634 27.2501 13.0891 30.1613 13.0891 30.1613C13.0891 30.1613 16.0021 30.087 16.7859 29.3028C17.1027 28.9873 17.304 28.5743 17.3572 28.1304" stroke="var(--stroke-0, white)" stroke-width="0.853621" stroke-linecap="round" stroke-linejoin="round"/>
</g>
</g>
</svg>
