<svg width="81" height="150" viewBox="0 0 81 150" fill="none" xmlns="http://www.w3.org/2000/svg">
<path opacity="0.8" d="M15.3704 99.693L14.9327 100.254L14.8954 100.225L14.8624 100.191L15.3704 99.693ZM80.2456 149.772L72.0731 148.948L76.8728 142.283L80.2456 149.772ZM80.2456 0.672913L80.4762 1.34584C79.2397 1.76964 77.9755 2.21734 76.6879 2.6884L76.4435 2.02035L76.1991 1.35231C77.4957 0.877951 78.769 0.426997 80.015 -1.46627e-05L80.2456 0.672913ZM68.9268 4.9347L69.1963 5.59303C66.7753 6.58405 64.3053 7.64567 61.81 8.77484L61.5167 8.12676L61.2234 7.47867C63.7349 6.34224 66.2206 5.2738 68.6573 4.27637L68.9268 4.9347ZM54.2207 11.5921L54.5379 12.2288C52.1566 13.415 49.773 14.6587 47.407 15.9573L47.0647 15.3337L46.7225 14.7101C49.1059 13.402 51.5062 12.1496 53.9035 10.9553L54.2207 11.5921ZM40.0733 19.3694L40.4427 19.9773C38.1446 21.3735 35.8834 22.8212 33.6785 24.3177L33.279 23.7291L32.8795 23.1405C35.1056 21.6297 37.387 20.1692 39.704 18.7614L40.0733 19.3694ZM26.7344 28.4514L27.168 29.0153C25.0157 30.6704 22.9459 32.375 20.9798 34.1261L20.5066 33.5949L20.0335 33.0637C22.0274 31.2879 24.1238 29.5616 26.3007 27.8875L26.7344 28.4514ZM14.7183 39.2179L15.2373 39.7043C13.3715 41.6949 11.6536 43.7349 10.1099 45.8206L9.53809 45.3974L8.96632 44.9742C10.5462 42.8397 12.3 40.7576 14.1993 38.7314L14.7183 39.2179ZM5.22334 52.2071L5.85248 52.5391C4.58982 54.932 3.5716 57.3737 2.8313 59.8597L2.14953 59.6567L1.46777 59.4537C2.23721 56.8698 3.29253 54.342 4.5942 51.8752L5.22334 52.2071ZM0.757126 67.5851L1.46748 67.623C1.33045 70.1956 1.50508 72.813 2.02763 75.4718L1.32963 75.609L0.631622 75.7462C0.0863113 72.9715 -0.0964432 70.2365 0.0467834 67.5473L0.757126 67.5851ZM3.77006 83.2896L4.42123 83.0033C5.42525 85.2864 6.69699 87.5992 8.25932 89.9387L7.66776 90.3338L7.07618 90.7288C5.47135 88.3256 4.15868 85.9405 3.11889 83.576L3.77006 83.2896ZM12.5888 96.7004L13.1231 96.2308C13.9882 97.2149 14.9061 98.203 15.8784 99.195L15.3704 99.693L14.8624 100.191C13.8728 99.1813 12.9373 98.1743 12.0546 97.17L12.5888 96.7004ZM15.3704 99.693L15.8082 99.1323C16.8341 99.9332 17.9087 100.772 19.0251 101.643L18.5875 102.204L18.1499 102.765C17.0334 101.894 15.9587 101.055 14.9327 100.254L15.3704 99.693ZM25.0569 107.249L25.4942 106.688C27.5799 108.313 29.7473 110.001 31.9638 111.727L31.5268 112.289L31.0898 112.85C28.8731 111.124 26.7055 109.435 24.6196 107.81L25.0569 107.249ZM37.9973 117.324L38.4341 116.762C40.585 118.435 42.7519 120.119 44.9076 121.794L44.4712 122.356L44.0348 122.918C41.8789 121.243 39.7117 119.558 37.5606 117.885L37.9973 117.324ZM50.9462 127.382L51.3822 126.819C53.5976 128.538 55.7699 130.221 57.8674 131.844L57.432 132.407L56.9967 132.969C54.8987 131.346 52.726 129.662 50.5103 127.944L50.9462 127.382ZM63.9203 137.421L64.3548 136.858C66.7096 138.675 68.8964 140.358 70.8546 141.86L70.4216 142.425L69.9886 142.989C68.0292 141.486 65.8413 139.802 63.4857 137.984L63.9203 137.421Z" fill="white"/>
</svg>
