<svg preserveAspectRatio="none" width="100%" height="100%" overflow="visible" style="display: block;" viewBox="0 0 80.4763 149.772" fill="none" xmlns="http://www.w3.org/2000/svg">
<path id="Vector 1" opacity="0.8" d="M65.1058 99.693L65.5436 100.254L65.5808 100.225L65.6138 100.191L65.1058 99.693ZM0.230628 149.772L8.40318 148.948L3.60341 142.283L0.230628 149.772ZM0.230628 0.672927L0 1.34585C1.23658 1.76966 2.50075 2.21736 3.78833 2.68841L4.03273 2.02037L4.27714 1.35232C2.98054 0.877966 1.70719 0.427012 0.461255 0L0.230628 0.672927ZM11.5495 4.93471L11.28 5.59304C13.701 6.58407 16.1709 7.64569 18.6663 8.77486L18.9595 8.12677L19.2528 7.47869C16.7414 6.34225 14.2556 5.27381 11.8189 4.27638L11.5495 4.93471ZM26.2556 11.5921L25.9384 12.2288C28.3197 13.4151 30.7032 14.6588 33.0693 15.9573L33.4115 15.3337L33.7538 14.7101C31.3703 13.402 28.9701 12.1496 26.5727 10.9554L26.2556 11.5921ZM40.4029 19.3694L40.0335 19.9773C42.3316 21.3736 44.5928 22.8212 46.7978 24.3177L47.1973 23.7291L47.5967 23.1405C45.3706 21.6297 43.0893 20.1692 40.7722 18.7615L40.4029 19.3694ZM53.7419 28.4514L53.3082 29.0153C55.4605 30.6704 57.5304 32.375 59.4965 34.1261L59.9696 33.5949L60.4427 33.0637C58.4489 31.2879 56.3524 29.5616 54.1755 27.8875L53.7419 28.4514ZM65.758 39.2179L65.239 39.7043C67.1047 41.6949 68.8226 43.7349 70.3664 45.8207L70.9381 45.3975L71.5099 44.9743C69.93 42.8397 68.1762 40.7577 66.277 38.7314L65.758 39.2179ZM75.2529 52.2072L74.6238 52.5391C75.8864 54.932 76.9046 57.3737 77.6449 59.8597L78.3267 59.6567L79.0085 59.4537C78.239 56.8699 77.1837 54.342 75.882 51.8752L75.2529 52.2072ZM79.7191 67.5852L79.0088 67.623C79.1458 70.1956 78.9712 72.813 78.4486 75.4718L79.1466 75.609L79.8446 75.7462C80.3899 72.9715 80.5727 70.2365 80.4294 67.5473L79.7191 67.5852ZM76.7062 83.2897L76.055 83.0033C75.051 85.2864 73.7792 87.5992 72.2169 89.9387L72.8085 90.3338L73.4001 90.7288C75.0049 88.3256 76.3175 85.9405 77.3573 83.576L76.7062 83.2897ZM67.8874 96.7004L67.3531 96.2308C66.4881 97.2149 65.5702 98.203 64.5978 99.195L65.1058 99.693L65.6138 100.191C66.6035 99.1813 67.539 98.1743 68.4217 97.17L67.8874 96.7004ZM65.1058 99.693L64.6681 99.1323C63.6421 99.9332 62.5675 100.772 61.4512 101.643L61.8887 102.204L62.3263 102.765C63.4428 101.894 64.5175 101.055 65.5436 100.254L65.1058 99.693ZM55.4193 107.249L54.982 106.688C52.8963 108.313 50.729 110.002 48.5124 111.727L48.9494 112.289L49.3864 112.85C51.6032 111.124 53.7707 109.435 55.8566 107.81L55.4193 107.249ZM42.4789 117.324L42.0422 116.762C39.8913 118.435 37.7243 120.119 35.5686 121.794L36.005 122.356L36.4414 122.918C38.5973 121.243 40.7645 119.558 42.9156 117.885L42.4789 117.324ZM29.53 127.382L29.0941 126.82C26.8787 128.538 24.7063 130.221 22.6088 131.844L23.0442 132.407L23.4796 132.969C25.5775 131.346 27.7502 129.662 29.966 127.944L29.53 127.382ZM16.556 137.421L16.1214 136.858C13.7666 138.675 11.5798 140.358 9.62167 141.86L10.0546 142.425L10.4876 142.989C12.4471 141.486 14.6349 139.802 16.9905 137.984L16.556 137.421Z" fill="var(--stroke-0, white)"/>
</svg>
