<svg width="82" height="48" viewBox="0 0 82 48" fill="none" xmlns="http://www.w3.org/2000/svg">
<g clip-path="url(#clip0_207_1595)">
<g clip-path="url(#clip1_207_1595)">
<path d="M22.6479 34.3076C20.4555 34.3076 18.2956 33.7246 16.3565 32.5831C13.4902 30.8977 11.4521 28.1956 10.6173 24.9771C9.93851 22.3596 10.3202 19.6365 11.6908 17.3046C13.0614 14.9728 15.2571 13.3182 17.875 12.6394C22.2841 11.4962 26.8005 14.1528 27.9436 18.5615C28.8807 22.1745 26.703 25.8768 23.0896 26.8137C21.6476 27.1873 20.1453 26.9776 18.8606 26.2226C17.5762 25.4675 16.6635 24.2562 16.2883 22.8142C15.6485 20.346 17.136 17.8161 19.6045 17.1764C20.6033 16.9166 21.6427 17.0627 22.5325 17.5856C23.4226 18.1084 24.0542 18.9462 24.3124 19.9449C24.7623 21.6807 23.7164 23.4589 21.9804 23.9086C20.5059 24.2919 18.9939 23.402 18.6107 21.926C18.2825 20.6595 19.0458 19.3604 20.3125 19.0324C20.8453 18.8943 21.4006 18.9723 21.8749 19.2516C22.1883 19.4351 22.4416 19.6933 22.6171 20.0001C22.4286 19.5764 22.1152 19.224 21.7077 18.9837C21.1928 18.68 20.5886 18.5971 20.0105 18.7467C18.4093 19.1622 17.4429 20.8039 17.8588 22.405C18.1235 23.4281 18.7714 24.2855 19.6825 24.8212C20.5935 25.3572 21.6573 25.5065 22.6804 25.2403C25.4281 24.5274 27.0829 21.7132 26.37 18.9675C25.4526 15.4259 21.8228 13.2922 18.281 14.2096C16.0837 14.7796 14.2405 16.1712 13.0891 18.1264C11.9377 20.083 11.6177 22.371 12.1877 24.5679C13.6867 30.3455 19.6062 33.8269 25.3843 32.3298C32.715 30.4284 37.1338 22.9182 35.2322 15.5882C32.8287 6.31626 23.3266 0.728708 14.0553 3.13358C13.6217 3.24562 13.1784 2.98581 13.0663 2.55226C12.9543 2.1187 13.2141 1.6754 13.6477 1.56335C23.7862 -1.06561 34.1749 5.04481 36.8041 15.1823C38.9301 23.3794 33.9898 31.7776 25.7919 33.9032C24.7509 34.1728 23.6938 34.3076 22.6462 34.3076H22.6479Z" fill="url(#paint0_linear_207_1595)"/>
<path d="M24.1555 46.8749C20.2401 46.8749 16.3718 45.8648 12.872 43.8854C7.5275 40.8619 3.68188 35.9385 2.04003 30.023C0.716475 25.2489 1.33034 20.2443 3.7712 15.9314C6.21206 11.6186 10.1843 8.51545 14.9605 7.19042C18.8224 6.12033 22.871 6.61722 26.3577 8.59016C29.846 10.5631 32.3567 13.7766 33.4268 17.6381C34.2957 20.7687 33.8929 24.0505 32.2917 26.8791C30.6921 29.7079 28.0855 31.7426 24.9546 32.6113C22.4081 33.3177 19.7382 32.9895 17.4371 31.689C15.1375 30.3883 13.481 28.2692 12.7746 25.7214C12.1981 23.6429 12.4661 21.4639 13.5281 19.585C14.5902 17.7079 16.3214 16.3552 18.4002 15.7788C20.1054 15.3063 21.8933 15.5255 23.4329 16.3975C24.9723 17.2694 26.0817 18.687 26.5541 20.392C26.9439 21.7984 26.7637 23.271 26.0442 24.5409C25.3264 25.8108 24.1555 26.7249 22.7491 27.1147C21.5832 27.4378 20.3603 27.2885 19.3063 26.6925C18.2523 26.0966 17.4939 25.1255 17.1708 23.9596C16.6121 21.946 17.7959 19.8563 19.8097 19.2976C21.5069 18.8266 23.2688 19.8253 23.7398 21.5206C24.1392 22.9641 23.2916 24.4646 21.8479 24.864C21.247 25.0313 20.6168 24.9534 20.0729 24.6464C19.5288 24.3395 19.139 23.8394 18.9717 23.237C18.8273 22.7142 18.8939 22.1669 19.1618 21.6944C19.2754 21.4947 19.4184 21.3177 19.5872 21.1699C18.8532 21.6797 18.4845 22.6167 18.7363 23.526C18.9441 24.2745 19.4313 24.8965 20.1069 25.2797C20.7826 25.6613 21.567 25.7587 22.3155 25.551C23.303 25.2766 24.1263 24.6352 24.6298 23.742C25.1347 22.8504 25.2615 21.8144 24.9871 20.8273C24.6298 19.5395 23.7933 18.4695 22.6306 17.8119C21.4678 17.1542 20.1183 16.9885 18.8321 17.3458C17.1708 17.807 15.7887 18.8867 14.9394 20.3872C14.09 21.8876 13.8773 23.6283 14.3369 25.2895C14.9264 27.4182 16.3117 29.1899 18.2344 30.2778C20.1573 31.3659 22.3887 31.6403 24.5176 31.0491C27.2314 30.2974 29.4887 28.5323 30.8756 26.0819C32.2626 23.6316 32.6116 20.7883 31.8581 18.0749C30.9033 14.6308 28.6637 11.7663 25.5538 10.0061C22.4439 8.2459 18.8338 7.8026 15.3892 8.75741C11.0321 9.96553 7.4057 12.7975 5.1792 16.7336C2.95272 20.6681 2.39244 25.2342 3.60068 29.591C5.12561 35.0892 8.70001 39.6635 13.6662 42.4744C18.6324 45.2835 24.3959 45.9916 29.8947 44.4667C30.3267 44.3466 30.7749 44.6 30.8936 45.0319C31.0136 45.4639 30.7603 45.9119 30.3283 46.0306C28.287 46.5956 26.2116 46.8766 24.1506 46.8766L24.1555 46.8749Z" fill="url(#paint1_linear_207_1595)"/>
<path d="M43.1054 11.9472H42.3194V16.895H41.9199V6.05273H43.1624C44.3137 6.05273 44.4274 7.34205 44.4274 9.1867C44.4274 11.0314 44.3137 11.9456 43.1054 11.9456V11.9472ZM43.0941 6.51877H42.3194V11.4665H43.0827C43.9596 11.4665 44.0279 10.6725 44.0279 9.1867C44.0279 7.5369 43.9596 6.51715 43.0941 6.51715V6.51877Z" fill="#36A9E1" stroke="#39A8E0" stroke-width="0.0117196" stroke-miterlimit="10"/>
<path d="M45.7949 16.8968V6.05469H46.1946V16.4309H47.812V16.8953H45.7949V16.8968Z" fill="#36A9E1" stroke="#39A8E0" stroke-width="0.0117196" stroke-miterlimit="10"/>
<path d="M51.3986 16.8968L51.0219 14.0033H49.2094L48.8213 16.8968H48.4219L49.9484 6.05469H50.3934L51.7949 16.8968H51.3955H51.3986ZM50.1579 6.93968L49.2695 13.5372H50.9667L50.1579 6.93968Z" fill="#36A9E1" stroke="#39A8E0" stroke-width="0.0117196" stroke-miterlimit="10"/>
<path d="M55.0326 16.8968L53.4037 6.54996V16.8968H53.0156V6.05469H53.6994L55.3396 16.4017V6.05469H55.7163V16.8968H55.0326Z" fill="#36A9E1" stroke="#39A8E0" stroke-width="0.0117196" stroke-miterlimit="10"/>
<path d="M59.4193 16.8968L57.7904 6.54996V16.8968H57.4023V6.05469H58.0859L59.7262 16.4017V6.05469H60.103V16.8968H59.4193Z" fill="#36A9E1" stroke="#39A8E0" stroke-width="0.0117196" stroke-miterlimit="10"/>
<path d="M61.7891 16.8968V6.05469H63.8743V6.5191H62.1887V10.9732H63.7379V11.4377H62.1887V16.4309H64.0236V16.8953H61.7907L61.7891 16.8968Z" fill="#36A9E1" stroke="#39A8E0" stroke-width="0.0117196" stroke-miterlimit="10"/>
<path d="M66.5645 16.8968H65.3223V6.05469H66.4964C67.8524 6.05469 67.9546 7.7045 67.9546 10.7183V11.6487C67.9546 15.4874 67.8751 16.8968 66.5645 16.8968ZM67.5438 10.7329C67.5438 7.77919 67.4301 6.53372 66.4833 6.53372H65.7201V16.4309H66.5516C67.4854 16.4309 67.5423 15.3364 67.5423 11.6471V10.7329H67.5438Z" fill="#36A9E1" stroke="#39A8E0" stroke-width="0.0117196" stroke-miterlimit="10"/>
<path d="M44.3474 21.6811H43.9366C43.9366 20.4958 43.8683 19.4013 43.1164 19.4013C42.1827 19.4013 42.1827 21.3061 42.1827 24.3652C42.1827 28.0838 42.1941 29.7045 43.1961 29.7045C43.6183 29.7045 43.6637 29.6297 43.9252 29.4949V25.5214H43.0027V25.057H44.3247V29.8262C43.9836 30.0211 43.7432 30.1559 43.1847 30.1559C41.8741 30.1559 41.7832 28.6571 41.7832 24.3669C41.7832 20.9634 41.7832 18.9531 43.1164 18.9531C44.2679 18.9531 44.3474 20.3479 44.3474 21.6828V21.6811Z" fill="#36A9E1" stroke="#39A8E0" stroke-width="0.0117196" stroke-miterlimit="10"/>
<path d="M45.8164 29.9751V19.1328H46.2159V29.9751H45.8164Z" fill="#36A9E1" stroke="#39A8E0" stroke-width="0.0117196" stroke-miterlimit="10"/>
<path d="M49.2453 29.9751H48.7775L47.4102 19.1328H47.8438L49.0179 29.03L50.2034 19.1328H50.6029L49.2469 29.9751H49.2453Z" fill="#36A9E1" stroke="#39A8E0" stroke-width="0.0117196" stroke-miterlimit="10"/>
<path d="M51.7988 29.9751V19.1328H52.1983V29.9751H51.7988Z" fill="#36A9E1" stroke="#39A8E0" stroke-width="0.0117196" stroke-miterlimit="10"/>
<path d="M55.8997 29.9751L54.2709 19.628V29.9751H53.8828V19.1328H54.5666L56.2068 29.4797V19.1328H56.5835V29.9751H55.8997Z" fill="#36A9E1" stroke="#39A8E0" stroke-width="0.0117196" stroke-miterlimit="10"/>
<path d="M60.6971 21.6811H60.2862C60.2862 20.4958 60.2181 19.4013 59.4662 19.4013C58.5323 19.4013 58.5323 21.3061 58.5323 24.3652C58.5323 28.0838 58.5437 29.7045 59.5457 29.7045C59.9679 29.7045 60.0135 29.6297 60.2748 29.4949V25.5214H59.3525V25.057H60.6743V29.8262C60.3332 30.0211 60.093 30.1559 59.5343 30.1559C58.2237 30.1559 58.1328 28.6571 58.1328 24.3669C58.1328 20.9634 58.1328 18.9531 59.4662 18.9531C60.6175 18.9531 60.6971 20.3479 60.6971 21.6828V21.6811Z" fill="#36A9E1" stroke="#39A8E0" stroke-width="0.0117196" stroke-miterlimit="10"/>
<path d="M44.4162 43.0532L44.0395 40.1595H42.2272L41.8389 43.0532H41.4395L42.966 32.2109H43.411L44.8125 43.0532H44.413H44.4162ZM43.1739 33.0976L42.2856 39.6951H43.9826L43.1739 33.0976Z" fill="#951B81" stroke="#941D81" stroke-width="0.0117196" stroke-miterlimit="10"/>
<path d="M48.4474 34.7629H48.0479C48.0365 33.7577 47.9684 32.4831 47.2277 32.4831C46.294 32.4831 46.3054 34.3878 46.3054 37.447C46.3054 41.0015 46.3282 42.7861 47.2391 42.7861C47.9798 42.7861 48.0251 41.5862 48.0251 40.3114H48.436C48.436 41.6315 48.3906 43.2359 47.2277 43.2359C45.8945 43.2359 45.8945 41.2419 45.8945 37.447C45.8945 33.8486 45.9399 32.0332 47.2391 32.0332C48.4132 32.0332 48.436 33.4881 48.4474 34.7629Z" fill="#951B81" stroke="#941D81" stroke-width="0.0117196" stroke-miterlimit="10"/>
<path d="M52.2208 34.7629H51.8214C51.81 33.7577 51.7418 32.4831 51.0013 32.4831C50.0674 32.4831 50.0788 34.3878 50.0788 37.447C50.0788 41.0015 50.1016 42.7861 51.0127 42.7861C51.7532 42.7861 51.7986 41.5862 51.7986 40.3114H52.2094C52.2094 41.6315 52.1641 43.2359 51.0013 43.2359C49.668 43.2359 49.668 41.2419 49.668 37.447C49.668 33.8486 49.7135 32.0332 51.0127 32.0332C52.1868 32.0332 52.2094 33.4881 52.2208 34.7629Z" fill="#951B81" stroke="#941D81" stroke-width="0.0117196" stroke-miterlimit="10"/>
<path d="M53.5742 43.0532V32.2109H55.6595V32.6754H53.9737V37.1295H55.523V37.5939H53.9737V42.5871H55.8088V43.0515H53.5759L53.5742 43.0532Z" fill="#951B81" stroke="#941D81" stroke-width="0.0117196" stroke-miterlimit="10"/>
<path d="M57.1074 43.0532V32.2109H57.5069V42.5871H59.1245V43.0515H57.1074V43.0532Z" fill="#951B81" stroke="#941D81" stroke-width="0.0117196" stroke-miterlimit="10"/>
<path d="M60.3535 43.0532V32.2109H62.4386V32.6754H60.753V37.1295H62.3023V37.5939H60.753V42.5871H62.5881V43.0515H60.355L60.3535 43.0532Z" fill="#951B81" stroke="#941D81" stroke-width="0.0117196" stroke-miterlimit="10"/>
<path d="M66.1404 43.0532C66.0154 42.5888 65.97 41.5382 65.97 41.059L65.9586 39.2892C65.9472 38.0746 65.7994 37.6702 64.9794 37.6702H64.2842V43.0532H63.8848V32.2109H65.1158C66.2444 32.2109 66.3695 33.4857 66.3695 34.9098C66.3695 36.0496 66.2216 37.1733 65.5039 37.3845C66.1989 37.5793 66.3581 38.1184 66.3581 39.2291C66.3581 40.278 66.3695 41.0282 66.3695 41.0282C66.3695 41.5089 66.415 42.558 66.5399 43.0532H66.1404ZM64.2842 32.677V37.2058H64.9794C65.8903 37.2058 65.9586 35.9766 65.9586 34.9113C65.9586 33.7114 65.9245 32.677 65.0247 32.677H64.2842Z" fill="#951B81" stroke="#941D81" stroke-width="0.0117196" stroke-miterlimit="10"/>
<path d="M70.4826 43.0532L70.1059 40.1595H68.2936L67.9053 43.0532H67.5059L69.0324 32.2109H69.4774L70.8789 43.0532H70.4795H70.4826ZM69.242 33.0976L68.3537 39.6951H70.0507L69.242 33.0976Z" fill="#951B81" stroke="#941D81" stroke-width="0.0117196" stroke-miterlimit="10"/>
<path d="M72.7605 32.6773V43.0535H72.3611V32.6773H71.3477V32.2129H73.7853V32.6773H72.7605Z" fill="#951B81" stroke="#941D81" stroke-width="0.0117196" stroke-miterlimit="10"/>
<path d="M74.9941 43.0532V32.2109H77.0794V32.6754H75.3936V37.1295H76.9429V37.5939H75.3936V42.5871H77.2287V43.0515H74.9958L74.9941 43.0532Z" fill="#951B81" stroke="#941D81" stroke-width="0.0117196" stroke-miterlimit="10"/>
<path d="M79.7678 43.0532H78.5254V32.2109H79.6995C81.0556 32.2109 81.1579 33.8607 81.1579 36.8745V37.805C81.1579 41.6437 81.0782 43.0532 79.7678 43.0532ZM80.7486 36.8907C80.7486 33.9371 80.6349 32.6916 79.6881 32.6916H78.9249V42.5888H79.7564C80.6902 42.5888 80.7471 41.4943 80.7471 37.805V36.8907H80.7486Z" fill="#951B81" stroke="#941D81" stroke-width="0.0117196" stroke-miterlimit="10"/>
<g opacity="0.7">
<path opacity="0.63" d="M77.2357 44.5401V46.9499H76.9223V44.5401H76.3066V44.2852H77.8511V44.5401H77.2357Z" fill="#951B81" stroke="#941D81" stroke-width="0.00837112"/>
<path opacity="0.63" d="M80.3513 46.9501V44.5177L79.666 46.9501H79.3151L78.6298 44.5177V46.9501H78.3457V44.2871H78.862L79.5036 46.6335L80.1418 44.2871H80.6581V46.9501H80.3529H80.3513Z" fill="#951B81" stroke="#941D81" stroke-width="0.00837112"/>
</g>
</g>
</g>
<defs>
<linearGradient id="paint0_linear_207_1595" x1="8.45487" y1="10.741" x2="35.9396" y2="25.4057" gradientUnits="userSpaceOnUse">
<stop stop-color="#951B81"/>
<stop offset="0.4" stop-color="#54C3E9"/>
<stop offset="0.41" stop-color="#5AC4E9"/>
<stop offset="0.48" stop-color="#73CBEB"/>
<stop offset="0.56" stop-color="#86D1ED"/>
<stop offset="0.66" stop-color="#94D5EE"/>
<stop offset="0.77" stop-color="#9CD7EE"/>
<stop offset="0.99" stop-color="#9FD8EF"/>
</linearGradient>
<linearGradient id="paint1_linear_207_1595" x1="1.35795" y1="26.7557" x2="33.8752" y2="26.7557" gradientUnits="userSpaceOnUse">
<stop stop-color="#1D71B8"/>
<stop offset="0.27" stop-color="#54C3E9"/>
<stop offset="0.31" stop-color="#4EBFD3"/>
<stop offset="0.4" stop-color="#44B9B2"/>
<stop offset="0.49" stop-color="#3CB496"/>
<stop offset="0.59" stop-color="#36B080"/>
<stop offset="0.69" stop-color="#32AE71"/>
<stop offset="0.82" stop-color="#2FAC68"/>
<stop offset="1" stop-color="#2FAC66"/>
</linearGradient>
<clipPath id="clip0_207_1595">
<rect width="81.72" height="48" fill="white"/>
</clipPath>
<clipPath id="clip1_207_1595">
<rect width="81.72" height="48" fill="white"/>
</clipPath>
</defs>
</svg>
