<svg width="137" height="81" viewBox="0 0 137 81" fill="none" xmlns="http://www.w3.org/2000/svg">
<path d="M37.8577 57.3466C34.193 57.3466 30.5826 56.3721 27.3413 54.4641C22.5501 51.6468 19.1433 47.1302 17.748 41.7502C16.6133 37.375 17.2512 32.8231 19.5423 28.9253C21.8334 25.0275 25.5036 22.2616 29.8796 21.1271C37.2496 19.2162 44.799 23.6568 46.7098 31.0261C48.2762 37.0654 44.6361 43.2542 38.596 44.8202C36.1856 45.4446 33.6744 45.0942 31.5271 43.8321C29.38 42.5699 27.8544 40.5452 27.2273 38.1348C26.1578 34.0091 28.6443 29.7802 32.7705 28.7109C34.4401 28.2766 36.1775 28.5209 37.6649 29.3949C39.1526 30.2689 40.2085 31.6693 40.64 33.3386C41.392 36.2401 39.6438 39.2125 36.7419 39.9642C34.2772 40.6048 31.7499 39.1173 31.1093 36.6501C30.5607 34.533 31.8366 32.3616 33.954 31.8134C34.8445 31.5825 35.7728 31.7129 36.5656 32.1797C37.0895 32.4864 37.5129 32.918 37.8062 33.4309C37.4911 32.7226 36.9672 32.1335 36.286 31.7319C35.4255 31.2243 34.4155 31.0858 33.4491 31.3357C30.7726 32.0303 29.1573 34.7745 29.8524 37.4508C30.2949 39.161 31.3779 40.5941 32.9009 41.4897C34.4236 42.3855 36.2018 42.6351 37.912 42.1902C42.505 40.9985 45.2711 36.2944 44.0795 31.7048C42.5459 25.7848 36.4786 22.2182 30.5582 23.7518C26.8853 24.7045 23.8042 27.0306 21.8796 30.2988C19.9549 33.5695 19.4202 37.394 20.373 41.0663C22.8785 50.7238 32.7733 56.5431 42.4317 54.0407C54.6855 50.8623 62.0717 38.3086 58.8931 26.0562C54.8755 10.5576 38.9923 1.21765 23.4947 5.23753C22.7699 5.42481 22.0289 4.99053 21.8416 4.26581C21.6542 3.5411 22.0886 2.80009 22.8134 2.6128C39.7605 -1.78166 57.1258 8.43225 61.5207 25.3776C65.0743 39.0796 56.8163 53.1177 43.1131 56.6707C41.373 57.1213 39.606 57.3466 37.8549 57.3466H37.8577Z" fill="url(#paint0_linear_305_1453)"/>
<path d="M40.3758 78.3538C33.8311 78.3538 27.3649 76.6654 21.5149 73.3567C12.5812 68.3028 6.15303 60.073 3.4086 50.1849C1.1962 42.2048 2.22232 33.8393 6.30234 26.6301C10.3824 19.4209 17.0223 14.2338 25.0059 12.019C31.4613 10.2302 38.2288 11.0608 44.057 14.3587C49.8878 17.6566 54.0846 23.0282 55.8734 29.4828C57.3259 34.7158 56.6525 40.2016 53.976 44.9298C51.3022 49.6582 46.9452 53.0593 41.7116 54.5115C37.455 55.6922 32.9921 55.1437 29.1458 52.9697C25.3018 50.7955 22.5329 47.2534 21.352 42.9945C20.3884 39.5201 20.8363 35.8778 22.6116 32.7373C24.387 29.5995 27.2807 27.3385 30.7555 26.3749C33.6058 25.585 36.5944 25.9515 39.168 27.4091C41.7412 28.8666 43.5956 31.2361 44.3853 34.0862C45.0368 36.437 44.7357 38.8986 43.5329 41.0213C42.3331 43.144 40.3758 44.672 38.025 45.3235C36.0761 45.8636 34.032 45.614 32.2701 44.6177C30.5084 43.6217 29.2406 41.9985 28.7005 40.0496C27.7667 36.6838 29.7455 33.1906 33.1116 32.2568C35.9485 31.4695 38.8937 33.1389 39.6809 35.9727C40.3487 38.3856 38.9318 40.8937 36.5186 41.5614C35.5142 41.841 34.4608 41.7108 33.5515 41.1976C32.642 40.6846 31.9905 39.8487 31.7109 38.8418C31.4694 37.9678 31.5808 37.0529 32.0285 36.2632C32.2186 35.9293 32.4576 35.6335 32.7397 35.3864C31.5128 36.2385 30.8965 37.8049 31.3174 39.3248C31.6647 40.576 32.4791 41.6157 33.6083 42.2563C34.7378 42.8941 36.049 43.057 37.3002 42.7097C38.9508 42.251 40.3271 41.1788 41.1686 39.6858C42.0127 38.1956 42.2245 36.4638 41.7659 34.8138C41.1686 32.6611 39.7705 30.8726 37.8269 29.7733C35.8833 28.674 33.6274 28.397 31.4775 28.9942C28.7005 29.7652 26.3903 31.57 24.9706 34.0781C23.5509 36.5861 23.1953 39.4958 23.9635 42.2725C24.9489 45.8309 27.2644 48.7923 30.4784 50.6108C33.6926 52.4296 37.4225 52.8883 40.9811 51.9001C45.5173 50.6436 49.2906 47.6931 51.609 43.5971C53.9273 39.5014 54.5108 34.7486 53.2512 30.213C51.6551 24.4559 47.9115 19.6679 42.7132 16.7256C37.5148 13.7833 31.4803 13.0423 25.7226 14.6383C18.4393 16.6577 12.3776 21.3915 8.6559 27.9709C4.93421 34.5477 3.99767 42.1802 6.0173 49.4629C8.56632 58.6533 14.5411 66.2996 22.8424 70.9981C31.1436 75.6938 40.7777 76.8773 49.9693 74.3284C50.6913 74.1277 51.4405 74.5511 51.6389 75.2731C51.8396 75.9952 51.4161 76.7441 50.6941 76.9425C47.2818 77.887 43.8127 78.3566 40.3677 78.3566L40.3758 78.3538Z" fill="url(#paint1_linear_305_1453)"/>
<path d="M72.052 19.9701H70.738V28.2407H70.0703V10.1172H72.1471C74.0717 10.1172 74.2617 12.2724 74.2617 15.3558C74.2617 18.4392 74.0717 19.9674 72.052 19.9674V19.9701ZM72.0329 10.8962H70.738V19.1667H72.0139C73.4798 19.1667 73.594 17.8394 73.594 15.3558C73.594 12.5981 73.4798 10.8935 72.0329 10.8935V10.8962Z" fill="#36A9E1" stroke="#39A8E0" stroke-width="0.0195899" stroke-miterlimit="10"/>
<path d="M76.5469 28.2444V10.1211H77.2149V27.4655H79.9186V28.2419H76.5469V28.2444Z" fill="#36A9E1" stroke="#39A8E0" stroke-width="0.0195899" stroke-miterlimit="10"/>
<path d="M85.9153 28.2444L85.2856 23.4076H82.2559L81.6072 28.2444H80.9395L83.4912 10.1211H84.235L86.5777 28.2444H85.91H85.9153ZM83.8413 11.6004L82.3564 22.6286H85.1933L83.8413 11.6004Z" fill="#36A9E1" stroke="#39A8E0" stroke-width="0.0195899" stroke-miterlimit="10"/>
<path d="M91.9906 28.2444L89.2678 10.949V28.2444H88.6191V10.1211H89.7621L92.5038 27.4166V10.1211H93.1335V28.2444H91.9906Z" fill="#36A9E1" stroke="#39A8E0" stroke-width="0.0195899" stroke-miterlimit="10"/>
<path d="M99.3226 28.2444L96.5999 10.949V28.2444H95.9512V10.1211H97.0938L99.8356 27.4166V10.1211H100.466V28.2444H99.3226Z" fill="#36A9E1" stroke="#39A8E0" stroke-width="0.0195899" stroke-miterlimit="10"/>
<path d="M103.283 28.2444V10.1211H106.769V10.8974H103.951V18.3427H106.541V19.119H103.951V27.4655H107.018V28.2419H103.286L103.283 28.2444Z" fill="#36A9E1" stroke="#39A8E0" stroke-width="0.0195899" stroke-miterlimit="10"/>
<path d="M111.264 28.2444H109.188V10.1211H111.15C113.417 10.1211 113.588 12.8789 113.588 17.9166V19.4719C113.588 25.8885 113.455 28.2444 111.264 28.2444ZM112.901 17.941C112.901 13.0037 112.711 10.9218 111.128 10.9218H109.852V27.4655H111.242C112.803 27.4655 112.898 25.6361 112.898 19.4692V17.941H112.901Z" fill="#36A9E1" stroke="#39A8E0" stroke-width="0.0195899" stroke-miterlimit="10"/>
<path d="M74.1281 36.2416H73.4413C73.4413 34.2602 73.3271 32.4308 72.0703 32.4308C70.5095 32.4308 70.5095 35.6147 70.5095 40.7283C70.5095 46.9441 70.5286 49.6532 72.2035 49.6532C72.9093 49.6532 72.9851 49.5281 73.4223 49.3028V42.661H71.8803V41.8846H74.09V49.8566C73.5199 50.1824 73.1181 50.4076 72.1845 50.4076C69.9938 50.4076 69.8418 47.9024 69.8418 40.7311C69.8418 35.0419 69.8418 31.6816 72.0703 31.6816C73.9951 31.6816 74.1281 34.0131 74.1281 36.2444V36.2416Z" fill="#36A9E1" stroke="#39A8E0" stroke-width="0.0195899" stroke-miterlimit="10"/>
<path d="M76.5859 50.1049V31.9814H77.2537V50.1049H76.5859Z" fill="#36A9E1" stroke="#39A8E0" stroke-width="0.0195899" stroke-miterlimit="10"/>
<path d="M82.3155 50.1049H81.5336L79.248 31.9814H79.9729L81.9355 48.5251L83.9172 31.9814H84.5849L82.3183 50.1049H82.3155Z" fill="#36A9E1" stroke="#39A8E0" stroke-width="0.0195899" stroke-miterlimit="10"/>
<path d="M86.582 50.1049V31.9814H87.2498V50.1049H86.582Z" fill="#36A9E1" stroke="#39A8E0" stroke-width="0.0195899" stroke-miterlimit="10"/>
<path d="M93.4417 50.1049L90.719 32.8093V50.1049H90.0703V31.9814H91.2132L93.955 49.2768V31.9814H94.5847V50.1049H93.4417Z" fill="#36A9E1" stroke="#39A8E0" stroke-width="0.0195899" stroke-miterlimit="10"/>
<path d="M101.456 36.2416H100.769C100.769 34.2602 100.656 32.4308 99.3987 32.4308C97.8377 32.4308 97.8377 35.6147 97.8377 40.7283C97.8377 46.9441 97.8567 49.6532 99.5316 49.6532C100.237 49.6532 100.314 49.5281 100.75 49.3028V42.661H99.2087V41.8846H101.418V49.8566C100.848 50.1824 100.446 50.4076 99.5126 50.4076C97.3219 50.4076 97.1699 47.9024 97.1699 40.7311C97.1699 35.0419 97.1699 31.6816 99.3987 31.6816C101.323 31.6816 101.456 34.0131 101.456 36.2444V36.2416Z" fill="#36A9E1" stroke="#39A8E0" stroke-width="0.0195899" stroke-miterlimit="10"/>
<path d="M74.2415 71.9662L73.6118 67.1292H70.5823L69.9334 71.9662H69.2656L71.8174 53.8428H72.5612L74.9039 71.9662H74.2361H74.2415ZM72.1649 55.3249L70.68 66.3529H73.5166L72.1649 55.3249Z" fill="white" stroke="white" stroke-width="0.0195899" stroke-miterlimit="10"/>
<path d="M80.984 58.1077H80.3163C80.2973 56.4274 80.1834 54.2969 78.9453 54.2969C77.3845 54.2969 77.4036 57.4808 77.4036 62.5943C77.4036 68.536 77.4416 71.519 78.9643 71.519C80.2024 71.519 80.2782 69.5132 80.2782 67.3824H80.965C80.965 69.5891 80.8892 72.2709 78.9453 72.2709C76.7168 72.2709 76.7168 68.9378 76.7168 62.5943C76.7168 56.5794 76.7926 53.5449 78.9643 53.5449C80.927 53.5449 80.965 55.9769 80.984 58.1077Z" fill="white" stroke="white" stroke-width="0.0195899" stroke-miterlimit="10"/>
<path d="M87.2907 58.1077H86.6229C86.6039 56.4274 86.49 54.2969 85.2522 54.2969C83.6912 54.2969 83.7102 57.4808 83.7102 62.5943C83.7102 68.536 83.7483 71.519 85.2712 71.519C86.509 71.519 86.5849 69.5132 86.5849 67.3824H87.2716C87.2716 69.5891 87.1958 72.2709 85.2522 72.2709C83.0234 72.2709 83.0234 68.9378 83.0234 62.5943C83.0234 56.5794 83.0996 53.5449 85.2712 53.5449C87.2339 53.5449 87.2717 55.9769 87.2907 58.1077Z" fill="white" stroke="white" stroke-width="0.0195899" stroke-miterlimit="10"/>
<path d="M89.5527 71.9662V53.8428H93.0383V54.6191H90.2205V62.0644H92.8103V62.8407H90.2205V71.1871H93.288V71.9634H89.5555L89.5527 71.9662Z" fill="white" stroke="white" stroke-width="0.0195899" stroke-miterlimit="10"/>
<path d="M95.457 71.9662V53.8428H96.1248V71.1871H98.8287V71.9634H95.457V71.9662Z" fill="white" stroke="white" stroke-width="0.0195899" stroke-miterlimit="10"/>
<path d="M100.885 71.9662V53.8428H104.37V54.6191H101.552V62.0644H104.142V62.8407H101.552V71.1871H104.62V71.9634H100.887L100.885 71.9662Z" fill="white" stroke="white" stroke-width="0.0195899" stroke-miterlimit="10"/>
<path d="M110.56 71.9662C110.351 71.1899 110.275 69.4338 110.275 68.6329L110.256 65.6745C110.237 63.6442 109.989 62.9683 108.619 62.9683H107.457V71.9662H106.789V53.8428H108.847C110.733 53.8428 110.942 55.9736 110.942 58.354C110.942 60.2593 110.695 62.1377 109.496 62.4906C110.657 62.8164 110.923 63.7175 110.923 65.5741C110.923 67.3274 110.942 68.5814 110.942 68.5814C110.942 69.3849 111.019 71.1384 111.227 71.9662H110.56ZM107.457 54.6219V62.192H108.619C110.141 62.192 110.256 60.1373 110.256 58.3566C110.256 56.3508 110.199 54.6219 108.695 54.6219H107.457Z" fill="white" stroke="white" stroke-width="0.0195899" stroke-miterlimit="10"/>
<path d="M117.816 71.9662L117.186 67.1292H114.157L113.508 71.9662H112.84L115.392 53.8428H116.135L118.478 71.9662H117.81H117.816ZM115.742 55.3249L114.257 66.3529H117.094L115.742 55.3249Z" fill="white" stroke="white" stroke-width="0.0195899" stroke-miterlimit="10"/>
<path d="M121.623 54.622V71.9664H120.956V54.622H119.262V53.8457H123.336V54.622H121.623Z" fill="white" stroke="white" stroke-width="0.0195899" stroke-miterlimit="10"/>
<path d="M125.357 71.9662V53.8428H128.843V54.6191H126.025V62.0644H128.615V62.8407H126.025V71.1871H129.093V71.9634H125.36L125.357 71.9662Z" fill="white" stroke="white" stroke-width="0.0195899" stroke-miterlimit="10"/>
<path d="M133.339 71.9662H131.262V53.8428H133.224C135.491 53.8428 135.662 56.6005 135.662 61.6382V63.1936C135.662 69.6101 135.529 71.9662 133.339 71.9662ZM134.978 61.6653C134.978 56.7281 134.788 54.6462 133.205 54.6462H131.929V71.1899H133.319C134.88 71.1899 134.975 69.3605 134.975 63.1936V61.6653H134.978Z" fill="white" stroke="white" stroke-width="0.0195899" stroke-miterlimit="10"/>
<g opacity="0.7">
<path opacity="0.63" d="M129.102 74.4516V78.4796H128.578V74.4516H127.549V74.0254H130.13V74.4516H129.102Z" fill="white" stroke="white" stroke-width="0.0139928"/>
<path opacity="0.63" d="M134.311 78.4797V74.4137L133.166 78.4797H132.579L131.434 74.4137V78.4797H130.959V74.0283H131.822L132.894 77.9505L133.961 74.0283H134.824V78.4797H134.314H134.311Z" fill="white" stroke="white" stroke-width="0.0139928"/>
</g>
<defs>
<linearGradient id="paint0_linear_305_1453" x1="14.1333" y1="17.9537" x2="60.0755" y2="42.4667" gradientUnits="userSpaceOnUse">
<stop stop-color="#951B81"/>
<stop offset="0.4" stop-color="#54C3E9"/>
<stop offset="0.41" stop-color="#5AC4E9"/>
<stop offset="0.48" stop-color="#73CBEB"/>
<stop offset="0.56" stop-color="#86D1ED"/>
<stop offset="0.66" stop-color="#94D5EE"/>
<stop offset="0.77" stop-color="#9CD7EE"/>
<stop offset="0.99" stop-color="#9FD8EF"/>
</linearGradient>
<linearGradient id="paint1_linear_305_1453" x1="2.26847" y1="44.7235" x2="56.6229" y2="44.7235" gradientUnits="userSpaceOnUse">
<stop stop-color="#1D71B8"/>
<stop offset="0.27" stop-color="#54C3E9"/>
<stop offset="0.31" stop-color="#4EBFD3"/>
<stop offset="0.4" stop-color="#44B9B2"/>
<stop offset="0.49" stop-color="#3CB496"/>
<stop offset="0.59" stop-color="#36B080"/>
<stop offset="0.69" stop-color="#32AE71"/>
<stop offset="0.82" stop-color="#2FAC68"/>
<stop offset="1" stop-color="#2FAC66"/>
</linearGradient>
</defs>
</svg>
