<svg width="36" height="37" viewBox="0 0 36 37" fill="none" xmlns="http://www.w3.org/2000/svg">
<path d="M23.4844 1.5293C24.2461 0.791016 25.0957 0.357422 26.0332 0.228516C26.9707 0.0878906 27.8672 0.199219 28.7227 0.5625C29.5898 0.925781 30.2988 1.49414 30.8496 2.26758C31.4004 3.04102 31.6758 3.96094 31.6758 5.02734C31.6758 5.55469 31.5352 6.04102 31.2539 6.48633H32.5195C33.3398 6.48633 34.0371 6.7793 34.6113 7.36523C35.1855 7.93945 35.4727 8.63672 35.4727 9.45703V14.9238C35.4727 15.6738 35.2266 16.3242 34.7344 16.875C34.2539 17.4258 33.6562 17.7539 32.9414 17.8594V32.9941C32.9414 34.0723 32.5547 34.9922 31.7812 35.7539C31.0195 36.5156 30.0938 36.8965 29.0039 36.8965H6.48633C5.39648 36.8965 4.46484 36.5156 3.69141 35.7539C2.91797 35.0039 2.53125 34.084 2.53125 32.9941V17.8594C1.81641 17.7539 1.21289 17.4258 0.720703 16.875C0.240234 16.3242 0 15.6738 0 14.9238V9.45703C0 8.63672 0.287109 7.93945 0.861328 7.36523C1.44727 6.7793 2.15039 6.48633 2.9707 6.48633H4.21875C3.9375 6.04102 3.79688 5.55469 3.79688 5.02734C3.79688 3.96094 4.07227 3.04102 4.62305 2.26758C5.18555 1.49414 5.89453 0.925781 6.75 0.5625C7.60547 0.1875 8.50195 0.0703125 9.43945 0.210938C10.377 0.339844 11.2266 0.779297 11.9883 1.5293L14.2559 3.72656C14.5605 3.04687 15.0234 2.49609 15.6445 2.07422C16.2656 1.64062 16.9688 1.42383 17.7539 1.42383C18.5273 1.42383 19.2246 1.64062 19.8457 2.07422C20.4668 2.49609 20.9238 3.04687 21.2168 3.72656L23.4844 1.5293ZM5.0625 17.8945V32.9941C5.0625 33.3691 5.19727 33.6914 5.4668 33.9609C5.74805 34.2305 6.08789 34.3652 6.48633 34.3652H13.9395V17.8945H5.0625ZM21.5332 17.8945V34.3652H29.0039C29.4023 34.3652 29.7363 34.2246 30.0059 33.9434C30.2754 33.6738 30.4102 33.3574 30.4102 32.9941V17.8945H21.5332ZM32.9414 14.9238V9.45703C32.9414 9.16406 32.8008 9.01758 32.5195 9.01758H21.5332V15.3633H32.5195C32.8008 15.3633 32.9414 15.2168 32.9414 14.9238ZM13.9395 9.01758H2.9707C2.67773 9.01758 2.53125 9.16406 2.53125 9.45703V14.9238C2.53125 15.2168 2.67773 15.3633 2.9707 15.3633H13.9395V9.01758Z" fill="#1E293B"/>
</svg>
