<svg width="36" height="36" viewBox="0 0 36 36" fill="none" xmlns="http://www.w3.org/2000/svg">
<path d="M21.5332 6.57422C21.5332 6.57422 21.5332 6.56836 21.5332 6.55664C21.5332 7.16602 21.6211 7.76953 21.7969 8.36719L22.043 9.22852L20.6367 10.3711L17.8418 12.5859C17.1387 13.1484 16.7051 13.8633 16.541 14.7305C16.377 15.5859 16.4941 16.3887 16.8926 17.1387L15.5215 18.5098C15.3105 18.7207 15.2051 18.9785 15.2051 19.2832C15.2051 19.5879 15.3105 19.8516 15.5215 20.0742C15.7441 20.2852 16.002 20.3906 16.2949 20.3906C16.5996 20.3906 16.8633 20.2852 17.0859 20.0742L18.4395 18.7031C19.2012 19.1016 20.0098 19.2188 20.8652 19.0547C21.7324 18.8906 22.4473 18.457 23.0098 17.7539L26.3848 13.5176L27.334 13.7812C27.5332 13.8516 27.7441 13.9043 27.9668 13.9395C28.3184 14.0098 28.6699 14.0508 29.0215 14.0625C29.9473 14.0859 30.8438 13.9219 31.7109 13.5703C32.5898 13.207 33.3574 12.6797 34.0137 11.9883L35.1387 10.8457C35.4434 10.5293 35.543 10.1543 35.4375 9.7207C35.332 9.28711 35.0684 9.00586 34.6465 8.87695L30.4102 7.7168V7.73438C30.4219 7.44141 30.3809 7.1543 30.2871 6.87305L31.3418 5.80078C31.5645 5.58984 31.6758 5.33203 31.6758 5.02734C31.6758 4.72266 31.5645 4.46484 31.3418 4.25391C31.1309 4.03125 30.873 3.91992 30.5684 3.91992C30.2637 3.91992 30.0059 4.03125 29.7949 4.25391L28.7227 5.30859C28.4531 5.21484 28.1719 5.17383 27.8789 5.18555L26.6133 0.966797C26.4961 0.544922 26.2207 0.28125 25.7871 0.175781C25.3652 0.0585937 25.002 0.158203 24.6973 0.474609L23.5723 1.59961C22.8926 2.25586 22.377 3.01758 22.0254 3.88477C21.6855 4.75195 21.5215 5.64844 21.5332 6.57422ZM25.8223 16.2422L26.8418 14.9766L26.9824 15.0117C27.709 15.2227 28.4473 15.3281 29.1973 15.3281C29.291 15.3281 29.4082 15.3223 29.5488 15.3105C30.123 16.9512 30.4102 18.6445 30.4102 20.3906C30.4102 22.4883 30.0176 24.457 29.2324 26.2969C28.4473 28.1367 27.3574 29.7539 25.9629 31.1484C24.5684 32.543 22.9512 33.6328 21.1113 34.418C19.2715 35.2031 17.3027 35.5957 15.2051 35.5957C13.1074 35.5957 11.1387 35.2031 9.29883 34.418C7.45898 33.6328 5.8418 32.543 4.44727 31.1484C3.06445 29.7539 1.97461 28.1367 1.17773 26.2969C0.392578 24.457 0 22.4883 0 20.3906C0 18.293 0.392578 16.3301 1.17773 14.502C1.97461 12.6621 3.06445 11.0449 4.44727 9.65039C5.8418 8.25586 7.45898 7.16602 9.29883 6.38086C11.1387 5.58398 13.1074 5.18555 15.2051 5.18555C16.9512 5.18555 18.6445 5.47852 20.2852 6.06445C20.2383 6.95508 20.3379 7.83398 20.584 8.70117L20.6016 8.77148L19.3535 9.77344C18.0293 9.24609 16.6465 8.98242 15.2051 8.98242C13.6348 8.98242 12.1582 9.28125 10.7754 9.87891C9.4043 10.4648 8.19141 11.2852 7.13672 12.3398C6.09375 13.3828 5.27344 14.5957 4.67578 15.9785C4.08984 17.3496 3.79688 18.8203 3.79688 20.3906C3.79688 21.9727 4.08984 23.4551 4.67578 24.8379C5.27344 26.209 6.09375 27.416 7.13672 28.459C8.19141 29.502 9.4043 30.3164 10.7754 30.9023C12.1582 31.5 13.6348 31.7988 15.2051 31.7988C16.7754 31.7988 18.252 31.5 19.6348 30.9023C21.0176 30.3164 22.2305 29.502 23.2734 28.459C24.3164 27.416 25.1309 26.209 25.7168 24.8379C26.3145 23.4551 26.6133 21.9727 26.6133 20.3906C26.6133 18.9609 26.3496 17.5781 25.8223 16.2422ZM19.002 20.2676C19.8926 20.4668 20.7656 20.4316 21.6211 20.1621C22.0312 20.0332 22.4121 19.8574 22.7637 19.6348C22.7988 19.8926 22.8164 20.1445 22.8164 20.3906C22.8164 21.7969 22.4707 23.0742 21.7793 24.2227C21.0996 25.3711 20.1797 26.291 19.0195 26.9824C17.8711 27.6621 16.5996 28.002 15.2051 28.002C13.8105 28.002 12.5332 27.6621 11.373 26.9824C10.2246 26.291 9.31055 25.3711 8.63086 24.2227C7.95117 23.0742 7.61133 21.7969 7.61133 20.3906C7.61133 18.9961 7.95117 17.7246 8.63086 16.5762C9.31055 15.416 10.2246 14.4961 11.373 13.8164C12.5332 13.1367 13.8105 12.7969 15.2051 12.7969C15.4629 12.7969 15.7148 12.8086 15.9609 12.832C15.7383 13.1836 15.5684 13.5645 15.4512 13.9746C15.1699 14.8418 15.1348 15.7148 15.3457 16.5938C15.2871 16.5938 15.2402 16.5938 15.2051 16.5938C14.1504 16.5938 13.2539 16.9688 12.5156 17.7188C11.7773 18.457 11.4082 19.3477 11.4082 20.3906C11.4082 21.4453 11.7773 22.3418 12.5156 23.0801C13.2539 23.8184 14.1504 24.1875 15.2051 24.1875C16.2598 24.1875 17.1562 23.8184 17.8945 23.0801C18.6328 22.3418 19.002 21.4453 19.002 20.3906C19.002 20.3672 19.002 20.3262 19.002 20.2676Z" fill="#1E293B"/>
</svg>
