<svg width="33" height="38" viewBox="0 0 33 38" fill="none" xmlns="http://www.w3.org/2000/svg">
<path d="M16.2773 23.2031C15.8086 23.2031 15.4102 23.0391 15.082 22.7109C14.7539 22.3828 14.5898 21.9844 14.5898 21.5156C14.5898 21.0586 14.7539 20.666 15.082 20.3379C15.4102 19.998 15.8086 19.8281 16.2773 19.8281C16.7344 19.8281 17.127 19.998 17.4551 20.3379C17.7949 20.666 17.9648 21.0586 17.9648 21.5156C17.9648 21.7734 18.0527 21.9902 18.2285 22.166C18.4043 22.3418 18.6152 22.4297 18.8613 22.4297C19.1191 22.4297 19.3359 22.3418 19.5117 22.166C19.6875 21.9902 19.7754 21.7734 19.7754 21.5156C19.7754 20.707 19.5293 19.9922 19.0371 19.3711C18.5449 18.75 17.9297 18.3398 17.1914 18.1406V16.7168C17.1914 16.459 17.0977 16.2422 16.9102 16.0664C16.7344 15.8906 16.5234 15.8027 16.2773 15.8027C16.0195 15.8027 15.8027 15.8906 15.627 16.0664C15.4512 16.2422 15.3633 16.459 15.3633 16.7168V18.1406C14.6133 18.3398 13.9922 18.75 13.5 19.3711C13.0078 19.9922 12.7617 20.707 12.7617 21.5156C12.7617 22.4648 13.0898 23.2793 13.7461 23.959C14.4141 24.6387 15.2227 24.9902 16.1719 25.0137H16.2598C16.7168 25.0137 17.1094 25.1836 17.4375 25.5234C17.7773 25.8516 17.9473 26.2441 17.9473 26.7012C17.9473 27.1582 17.7773 27.5566 17.4375 27.8965C17.1094 28.2246 16.7168 28.3887 16.2598 28.3887C15.791 28.3887 15.3926 28.2246 15.0645 27.8965C14.748 27.5684 14.5898 27.1699 14.5898 26.7012C14.5898 26.4434 14.502 26.2266 14.3262 26.0508C14.1504 25.875 13.9336 25.7871 13.6758 25.7871C13.418 25.7871 13.2012 25.875 13.0254 26.0508C12.8496 26.2266 12.7617 26.4434 12.7617 26.7012C12.7617 27.5098 13.0078 28.2246 13.5 28.8457C13.9922 29.4668 14.6133 29.877 15.3633 30.0762V31.5C15.3633 31.7578 15.4512 31.9746 15.627 32.1504C15.8027 32.3262 16.0195 32.4141 16.2773 32.4141C16.5234 32.4141 16.7344 32.3262 16.9102 32.1504C17.0977 31.9746 17.1914 31.7578 17.1914 31.5V30.0762C17.9297 29.877 18.5449 29.4668 19.0371 28.8457C19.5293 28.2246 19.7754 27.5098 19.7754 26.7012C19.7754 25.752 19.4414 24.9375 18.7734 24.2578C18.1172 23.5781 17.3145 23.2266 16.3652 23.2031H16.2773ZM9.54492 5.15039C9.31055 4.64648 9.25781 4.11914 9.38672 3.56836C9.51562 3.0293 9.79688 2.57813 10.2305 2.21484C10.6641 1.86328 11.1562 1.67578 11.707 1.65234C12.2695 1.62891 12.7793 1.78125 13.2363 2.10938L14.3613 0.861328C14.6074 0.580078 14.8945 0.369141 15.2227 0.228516C15.5508 0.0761719 15.9023 0 16.2773 0C16.6406 0 16.9863 0.0761719 17.3145 0.228516C17.6426 0.380859 17.9297 0.591797 18.1758 0.861328L19.248 2.12695C19.7051 1.81055 20.209 1.66406 20.7598 1.6875C21.3223 1.71094 21.8145 1.9043 22.2363 2.26758C22.6699 2.63086 22.9453 3.08203 23.0625 3.62109C23.1914 4.16016 23.1387 4.6875 22.9043 5.20312L22.7109 5.50195L19.7051 8.92969C19.8105 9.12891 19.8633 9.33984 19.8633 9.5625C19.8633 9.62109 19.8574 9.67383 19.8457 9.7207C21.6621 10.1191 23.3379 10.8047 24.873 11.7773C26.4199 12.75 27.7676 13.9453 28.916 15.3633C30.0645 16.7695 30.9551 18.3398 31.5879 20.0742C32.2207 21.8086 32.5312 23.6484 32.5195 25.5938C32.5195 27.293 32.1973 28.8926 31.5527 30.3926C30.9199 31.8809 30.0352 33.1875 28.8984 34.3125C27.7734 35.4492 26.4609 36.334 24.9609 36.9668C23.4727 37.6113 21.8789 37.9336 20.1797 37.9336H12.3574C10.6465 37.9336 9.04688 37.6113 7.55859 36.9668C6.07031 36.334 4.75781 35.4492 3.62109 34.3125C2.48438 33.1875 1.59375 31.8809 0.949219 30.3926C0.316406 28.8926 0 27.293 0 25.5938C0 23.6484 0.316406 21.8086 0.949219 20.0742C1.59375 18.3398 2.48438 16.7695 3.62109 15.3633C4.76953 13.9453 6.11133 12.75 7.64648 11.7773C9.19336 10.8047 10.875 10.1191 12.6914 9.7207L13.0781 9.28125L9.54492 5.15039ZM14.3613 6.9082H18.123L20.2676 4.46484C19.7637 4.6875 19.2422 4.74023 18.7031 4.62305C18.1641 4.50586 17.7129 4.23633 17.3496 3.81445L16.2246 2.47852L15.2051 3.79688C14.8301 4.23047 14.3672 4.50586 13.8164 4.62305C13.2656 4.74023 12.7324 4.67578 12.2168 4.42969L14.3613 6.9082ZM2.53125 25.5938C2.53125 26.9414 2.7832 28.2129 3.28711 29.4082C3.80273 30.5918 4.51172 31.6289 5.41406 32.5195C6.31641 33.4219 7.35938 34.125 8.54297 34.6289C9.72656 35.1445 10.998 35.4023 12.3574 35.4023H20.1797C21.5273 35.4023 22.793 35.1445 23.9766 34.6289C25.1719 34.125 26.2148 33.4219 27.1055 32.5195C28.0078 31.6289 28.7109 30.5918 29.2148 29.4082C29.7305 28.2129 29.9883 26.9414 29.9883 25.5938V25.5762C29.9883 23.6895 29.6309 21.9141 28.916 20.25C28.2129 18.5859 27.2344 17.127 25.9805 15.873C24.7266 14.6191 23.2676 13.6348 21.6035 12.9199C19.9512 12.2051 18.1758 11.8477 16.2773 11.8477C14.3789 11.8477 12.5977 12.2051 10.9336 12.9199C9.28125 13.6348 7.82227 14.625 6.55664 15.8906C5.30273 17.1445 4.31836 18.6035 3.60352 20.2676C2.88867 21.9199 2.53125 23.6953 2.53125 25.5938Z" fill="#1E293B"/>
</svg>
