<svg preserveAspectRatio="none" width="100%" height="100%" overflow="visible" style="display: block;" viewBox="0 0 29.491 28.9336" fill="none" xmlns="http://www.w3.org/2000/svg">
<g id="Group">
<path id="Vector" d="M21.7457 22.3156C22.3982 20.7931 21.0933 16.7336 21.0933 16.7336C30.3727 8.32409 29.4668 0.0242861 29.4668 0.0242861C29.4668 0.0242861 21.1661 -0.881632 12.7566 8.39689C12.7566 8.39689 8.69702 7.09193 7.17456 7.74441C7.17456 7.74441 4.8706 9.79033 2.82468 13.5439C2.82468 13.5439 5.86867 13.5439 7.39113 15.6461C7.39113 15.6461 6.08617 17.9666 6.37647 19.2707C6.37647 19.2707 7.60863 19.3435 8.87765 20.6116C10.1467 21.8806 10.2195 23.1128 10.2195 23.1128C11.5244 23.4031 13.8441 22.0972 13.8441 22.0972C15.9462 23.6196 15.9462 26.6646 15.9462 26.6646C19.6998 24.6196 21.7457 22.3156 21.7457 22.3156ZM8.54772 14.4056C8.53574 14.3973 8.5256 14.3872 8.51454 14.3771C8.40764 14.2702 8.39382 14.0987 8.4869 13.9743L11.3862 10.1322C11.4885 9.99676 11.6811 9.97004 11.8166 10.0723C11.953 10.1746 11.9797 10.3672 11.8765 10.5027L8.97718 14.3448C8.87581 14.4812 8.68319 14.5079 8.54772 14.4056ZM18.0124 11.4778C16.771 10.2364 16.771 8.22363 18.0124 6.98318C19.2538 5.74272 21.2656 5.7418 22.507 6.98318C23.7484 8.22455 23.7484 10.2364 22.507 11.4778C21.2656 12.7191 19.2538 12.7191 18.0124 11.4778ZM15.5149 21.0023C15.3914 21.0963 15.22 21.0816 15.1122 20.9747C15.102 20.9646 15.0928 20.9544 15.0836 20.9424C14.9813 20.8079 15.008 20.6144 15.1435 20.5121L18.9856 17.6127C19.1211 17.5105 19.3137 17.5353 19.416 17.6717C19.5183 17.8072 19.4916 18.0007 19.3561 18.103L15.5149 21.0023Z" fill="var(--fill-0, #0E7159)"/>
<path id="Vector_2" d="M8.55604 23.0262C8.49705 23.7386 8.25836 24.3183 7.83904 24.7496C7.08611 25.5246 6.04103 25.5403 5.99679 25.5412C5.96362 25.5422 5.9332 25.5219 5.91938 25.4915C5.90556 25.4611 5.91201 25.4251 5.93413 25.3993C6.22811 25.0804 6.33409 24.8159 6.37096 24.6473C5.46135 25.4518 3.78775 25.1191 3.7131 25.1035C3.69559 25.1016 3.68085 25.0924 3.66979 25.0814C3.65412 25.0648 3.64491 25.0436 3.64491 25.0196C3.64583 24.9791 3.67624 24.945 3.71679 24.9394C3.87438 24.9146 4.00156 24.6372 4.19417 24.2178C4.27066 24.052 4.35637 23.863 4.46143 23.6547C4.61534 23.346 4.83836 23.111 5.05309 22.9405C4.51765 22.9728 3.97852 22.8318 3.95087 22.8235C3.91862 22.8161 3.89466 22.7894 3.89005 22.7571C3.88452 22.7249 3.89834 22.6926 3.92599 22.6742C4.44484 22.3175 4.584 22.0641 4.71855 21.819C4.77477 21.7167 4.83283 21.6107 4.91577 21.5038C5.39961 20.8826 5.96177 20.7951 6.41151 20.8688C5.84289 20.525 3.86885 19.5601 2.32704 21.536C2.17406 21.7314 2.06807 21.9259 1.96486 22.1129C1.71787 22.5608 1.46351 23.0253 0.512436 23.6787C0.462671 23.7128 0.436866 23.7727 0.447925 23.8317C0.458984 23.8907 0.502299 23.9377 0.560359 23.9543C0.611046 23.9672 1.59806 24.228 2.57955 24.1662C2.18696 24.4805 1.77777 24.9109 1.49577 25.4767C1.30408 25.8601 1.14557 26.2048 1.00641 26.508C0.652517 27.2757 0.419356 27.7844 0.1309 27.8295C0.057173 27.8406 0.00187785 27.9033 3.46755e-05 27.977C-0.00088691 28.0203 0.0166232 28.0609 0.0451924 28.0903C0.0654673 28.1097 0.0931148 28.1254 0.122606 28.1318C0.259922 28.1604 3.32604 28.7705 4.99319 27.2969C4.92499 27.6065 4.73053 28.0903 4.19233 28.6755C4.15086 28.7207 4.1398 28.7852 4.1656 28.8424C4.19048 28.8995 4.24578 28.9345 4.30753 28.9336C4.3877 28.9336 6.28433 28.8829 7.68329 27.483C9.84073 25.3237 9.1265 23.9045 8.55604 23.0262Z" fill="var(--fill-0, #0E7159)"/>
</g>
</svg>
