<svg preserveAspectRatio="none" width="100%" height="100%" overflow="visible" style="display: block;" viewBox="0 0 60 60" fill="none" xmlns="http://www.w3.org/2000/svg">
<g id="Group 19">
<circle id="Ellipse 7" cx="30" cy="30" r="30" fill="var(--fill-0, #059669)" fill-opacity="0.1"/>
<g id="Group">
<path id="Vector" d="M21.3676 39.4108H42.005C42.0682 39.4108 42.1294 39.4019 42.1883 39.3878C42.193 39.3878 42.1969 39.3886 42.2015 39.3886C42.6421 39.3886 43 39.0311 43 38.5902V16.0231C43.0001 15.5824 42.6421 15.2246 42.2015 15.2246H42.0066H22.6446H21.3687C19.2434 15.2246 17.5147 16.9537 17.5147 19.0784C17.5147 19.1069 17.5203 19.134 17.5231 19.1615C17.5203 21.1241 17.496 39.1586 17.5203 41.5294C17.5188 41.5758 17.5131 41.6211 17.5131 41.6679C17.5131 43.7109 19.1128 45.3834 21.125 45.5098C21.1653 45.516 21.2049 45.5219 21.2468 45.5219H42.2015C42.642 45.5219 42.9999 45.1643 42.9999 44.7234V41.7179C42.9999 41.2773 42.642 40.9194 42.2015 40.9194C41.761 40.9194 41.403 41.2773 41.403 41.7179V43.925H21.3676C20.1542 43.925 19.1637 42.9616 19.1151 41.7604C19.1162 41.7389 19.1201 41.7187 19.1197 41.6968C19.119 41.6617 19.1178 41.6072 19.117 41.5346C19.1868 40.3524 20.1681 39.4108 21.3676 39.4108ZM21.912 19.0784C21.912 18.6377 22.2697 18.28 22.7105 18.28C23.1512 18.28 23.5089 18.6377 23.5089 19.0784V35.2972C23.5089 35.7378 23.1512 36.0957 22.7105 36.0957C22.2697 36.0957 21.912 35.7377 21.912 35.2972V19.0784Z" fill="var(--fill-0, #0E7159)"/>
</g>
</g>
</svg>
