<svg preserveAspectRatio="none" width="100%" height="100%" overflow="visible" style="display: block;" viewBox="0 0 60 60" fill="none" xmlns="http://www.w3.org/2000/svg">
<g id="Group 16">
<circle id="Ellipse 9" cx="30" cy="30" r="30" fill="var(--fill-0, #059669)" fill-opacity="0.1"/>
<g id="Group">
<g id="Group_2">
<path id="Vector" d="M29.0203 18.2167C25.9143 20.0415 22.605 21.1005 19.1728 21.3794C19.6456 31.5673 22.9265 38.1055 28.9305 40.8143C29.285 40.6253 29.6301 40.4267 29.9658 40.214C29.7625 39.5095 29.6538 38.7579 29.6538 37.9873C29.6538 33.5765 33.1805 29.9694 37.5629 29.8464C37.7709 29.1562 37.9601 28.4376 38.1255 27.686C38.4706 25.9273 38.6739 24.7123 38.7685 23.7574C38.8583 22.9679 38.9292 22.1453 38.9812 21.2991C35.2228 20.9587 31.8757 19.9233 29.0203 18.2167ZM30.9397 31.6571C30.9822 31.8651 30.8215 32.0637 30.6087 32.0637H27.55C27.3373 32.0637 27.1765 31.8651 27.2191 31.6571L27.7533 29.0238C27.1576 28.6126 26.77 27.9224 26.77 27.1376C26.77 25.8611 27.8053 24.8258 29.0865 24.8305C30.3534 24.8305 31.455 25.9982 31.3841 27.2605C31.3462 27.9932 30.9727 28.6315 30.4055 29.0238L30.9397 31.6571Z" fill="var(--fill-0, #0E7159)"/>
<path id="Vector_2" d="M41.0528 18.2967C40.2113 18.2589 39.3934 18.1879 38.6039 18.084C37.4126 17.9421 36.1267 17.649 34.7699 17.2519C32.9403 16.6846 31.2904 15.8998 29.8107 14.9165C29.3521 14.6092 28.747 14.595 28.2837 14.8929C24.8184 17.1101 21.1167 18.2825 17.1645 18.3487C16.3797 18.3629 15.7557 19.0058 15.7746 19.7906C16.0819 32.7582 20.2847 40.9227 28.4917 44.1374C28.8463 44.2793 29.2529 44.2604 29.5932 44.0949C30.2315 43.7829 30.8508 43.4472 31.4559 43.0785C30.9784 42.4922 30.5813 41.8351 30.2882 41.126C29.9242 41.3482 29.5507 41.5562 29.1678 41.7547C29.1441 41.7689 29.1252 41.7784 29.1016 41.7831C29.0496 41.802 28.9976 41.8068 28.9503 41.8068C28.8746 41.8068 28.799 41.7926 28.7328 41.7595C22.1757 38.9229 18.6253 31.9167 18.2093 20.9536C18.1999 20.6983 18.3984 20.4808 18.6537 20.4666C22.1899 20.2539 25.5984 19.176 28.7801 17.2613C28.9314 17.1715 29.1205 17.1715 29.2718 17.2661C32.1697 19.0484 35.6114 20.1026 39.5163 20.391C39.7716 20.4146 39.9655 20.6321 39.9513 20.8874C39.8993 21.9133 39.8189 22.9155 39.7102 23.861C39.6109 24.8396 39.4076 26.083 39.0483 27.8794C38.897 28.5696 38.7268 29.2362 38.5377 29.8744C39.3272 29.9453 40.0884 30.1297 40.7975 30.4181C41.015 29.6806 41.2135 28.91 41.3932 28.1063C42.2299 23.8846 42.1732 23.0053 42.3907 19.9986C42.3954 19.9135 42.3954 19.8331 42.4002 19.748C42.4285 18.9774 41.8234 18.3298 41.0528 18.2967Z" fill="var(--fill-0, #0E7159)"/>
</g>
<path id="Vector_3" d="M37.8016 30.7872C33.8269 30.7872 30.6033 34.0109 30.6033 37.9856C30.6033 41.9548 33.8269 45.1785 37.8016 45.1785C41.7764 45.1785 45 41.9548 45 37.9856C45 34.0173 41.7824 30.7872 37.8016 30.7872ZM40.4459 36.6729L37.157 39.9612C37.0646 40.0536 36.9437 40.0997 36.8227 40.0997C36.7018 40.0997 36.5808 40.0536 36.4885 39.9612L35.1575 38.6304C34.9728 38.446 34.9728 38.1466 35.1575 37.9619C35.3421 37.7773 35.6413 37.7773 35.826 37.9619L36.8227 38.9585L39.7774 36.0044C39.9621 35.8198 40.2613 35.8198 40.4459 36.0044C40.6306 36.1891 40.6306 36.4885 40.4459 36.6729Z" fill="var(--fill-0, #0E7159)"/>
</g>
</g>
</svg>
