<svg preserveAspectRatio="none" width="100%" height="100%" overflow="visible" style="display: block;" viewBox="0 0 60 60" fill="none" xmlns="http://www.w3.org/2000/svg">
<g id="Group 18">
<circle id="Ellipse 3" cx="30" cy="30" r="30" fill="var(--fill-0, #059669)" fill-opacity="0.1"/>
<g id="Group">
<path id="Vector" d="M19.4468 39.393L16.2396 42.6002C15.9192 42.9206 15.9192 43.44 16.2396 43.7604C16.5599 44.0807 17.0793 44.0807 17.3997 43.7604L20.6069 40.5532C20.4048 40.3701 20.2066 40.1817 20.0125 39.9877C19.8183 39.7936 19.6299 39.5952 19.4468 39.393Z" fill="var(--fill-0, #0E7159)"/>
<path id="Vector_2" d="M43.1796 15.9993H35.2715C34.895 15.9993 34.5669 16.2556 34.4756 16.6207L33.7789 19.4076C33.0789 19.1556 32.577 18.4847 32.577 17.6984C32.5879 17.178 32.06 16.7659 31.5577 16.9026L28.0429 17.7812C27.7489 17.8547 27.5195 18.0842 27.446 18.3781L25.8959 24.5783C25.6835 24.4066 25.5474 24.1439 25.5474 23.8501V19.4557C25.5474 19.0129 25.131 18.5092 24.5277 18.6599C15.5754 20.9955 14.8431 31.9201 20.6082 38.231L39.0848 19.7544C39.4052 19.4339 39.9247 19.434 40.245 19.7544C40.5654 20.0747 40.5654 20.5941 40.245 20.9145L21.7684 39.3911C28.0819 45.1583 39.0055 44.4209 41.3394 35.4716C41.4727 34.9391 41.0619 34.4518 40.5436 34.4518H36.1492C35.8555 34.4518 35.5929 34.3158 35.4211 34.1032L41.6212 32.5532C41.9152 32.4797 42.1446 32.2502 42.2181 31.9563L43.0968 28.4415C43.1581 28.1965 43.103 27.9368 42.9475 27.7377C42.7921 27.5386 42.5536 27.4222 42.3009 27.4222C41.5151 27.4222 40.8442 26.9203 40.592 26.2203L43.3786 25.5237C43.7438 25.4324 44 25.1043 44 24.7279V16.8197C44 16.3666 43.6327 15.9993 43.1796 15.9993Z" fill="var(--fill-0, #0E7159)"/>
</g>
</g>
</svg>
