<svg preserveAspectRatio="none" width="100%" height="100%" overflow="visible" style="display: block;" viewBox="0 0 60 60" fill="none" xmlns="http://www.w3.org/2000/svg">
<g id="Group 12">
<circle id="Ellipse 2" cx="30" cy="30" r="30" fill="var(--fill-0, #059669)" fill-opacity="0.1"/>
<g id="Group">
<path id="Vector" d="M28.048 37.4414V38.9414H41.6389V37.4414C41.6389 37.2142 41.4116 36.9869 41.1844 36.9869H28.5025C28.2298 36.9869 28.048 37.1687 28.048 37.4414Z" fill="var(--fill-0, #0E7159)"/>
<path id="Vector_2" d="M42.2298 39.8505H27.5934L26.2298 41.6233C26.1844 41.7142 26.1389 41.8051 26.1389 41.896V43.396C26.1389 43.6233 26.3662 43.8505 26.5934 43.8505H43.2298C43.5025 43.8505 43.6844 43.6233 43.6844 43.396V41.896C43.6844 41.8051 43.6389 41.7142 43.5934 41.6233L42.2298 39.8505Z" fill="var(--fill-0, #0E7159)"/>
<path id="Vector_3" d="M31.2298 26.896L15.3662 40.6687C14.7753 41.2142 14.9571 42.1687 15.5025 42.8051C16.0934 43.4414 17.0025 43.7596 17.5934 43.2596L33.4571 29.4869L31.2298 26.896Z" fill="var(--fill-0, #0E7159)"/>
<path id="Vector_4" d="M31.2298 25.5323L34.8207 29.6687C34.9571 29.4869 35.0934 29.3505 35.2298 29.2142L39.8207 25.2142C40.0025 25.0778 40.1389 24.9414 40.3207 24.8505L36.7298 20.7596C36.5934 20.9414 36.4571 21.0778 36.3207 21.2142L31.7298 25.2142C31.5934 25.3051 31.4116 25.4414 31.2298 25.5323Z" fill="var(--fill-0, #0E7159)"/>
<path id="Vector_5" d="M27.4571 22.6233C27.7298 22.9414 28.1389 23.1233 28.548 23.1687C28.5025 23.5778 28.6389 23.9869 28.9116 24.3051C29.5025 24.9869 30.5025 25.0323 31.1389 24.4414L35.7298 20.4414C36.4116 19.8505 36.4571 18.8505 35.9116 18.2142C35.6389 17.896 35.2753 17.7142 34.8207 17.6687C34.8662 17.2596 34.7298 16.8505 34.4571 16.5323C33.8662 15.896 32.8662 15.8051 32.2298 16.396L27.5934 20.396C26.9571 20.9869 26.8662 21.9869 27.4571 22.6233Z" fill="var(--fill-0, #0E7159)"/>
<path id="Vector_6" d="M44.0934 27.7142C43.8207 27.396 43.4116 27.2142 43.0025 27.1687C43.048 26.7596 42.9116 26.3505 42.6389 26.0323C42.048 25.3505 41.048 25.3051 40.4116 25.8505L35.8207 29.8505C35.1389 30.4414 35.0934 31.4414 35.6844 32.0778C35.9571 32.396 36.3662 32.5778 36.7753 32.6233C36.7298 33.0323 36.8662 33.4414 37.1389 33.7596C37.6844 34.396 38.6844 34.4869 39.3662 33.896L43.9571 29.9414C44.5934 29.396 44.6844 28.396 44.0934 27.7142Z" fill="var(--fill-0, #0E7159)"/>
</g>
</g>
</svg>
