<svg width="24" height="33" viewBox="0 0 24 33" fill="none" xmlns="http://www.w3.org/2000/svg">
<path d="M24 4.30108C24 0.860215 20.7194 0 18.1295 0V0.516129C19.6835 0.516129 20.8921 1.03226 20.8921 2.23656C20.8803 2.48906 20.8159 2.73636 20.703 2.96272C20.5901 3.18908 20.4312 3.38955 20.2363 3.55137C20.0414 3.71319 19.8149 3.83282 19.5711 3.90266C19.3272 3.97249 19.0715 3.99099 18.8201 3.95699C16.8685 3.74921 14.9528 3.28646 13.1223 2.58065C11.1798 1.85131 9.14678 1.3883 7.07914 1.2043C6.32911 1.17451 5.58065 1.29401 4.87752 1.55583C4.17439 1.81765 3.5307 2.21652 2.9841 2.72913C2.43749 3.24174 1.99894 3.85779 1.69409 4.54126C1.38924 5.22473 1.2242 5.96191 1.20863 6.70968C1.19756 7.52932 1.44026 8.33244 1.90369 9.00971C2.36713 9.68698 3.02878 10.2055 3.79856 10.4946L3.97122 10.1505C3.64776 9.99722 3.37692 9.75218 3.19263 9.44613C3.00834 9.14008 2.91881 8.78664 2.93525 8.43011C3.00696 7.86109 3.30101 7.34321 3.75358 6.9889C4.20614 6.63458 4.7807 6.47243 5.35252 6.53763C7.54012 6.77705 9.68745 7.2975 11.741 8.08602C13.8372 8.68657 15.9715 9.14639 18.1295 9.46237V14.7957L15.5396 17.0323V17.2043L18.1295 19.4409V26.8387C16.8177 27.583 15.3209 27.941 13.8129 27.871C12.5561 27.9368 11.3002 27.7241 10.1358 27.2481C8.97141 26.7721 7.92745 26.0447 7.07914 25.1183L14.1583 21.6774V9.63441L5.52518 13.4194C6.49143 11.3492 8.05417 9.61235 10.0144 8.43011L9.84173 8.08602C7.13495 8.7408 4.71357 10.2509 2.9396 12.3907C1.16564 14.5304 0.134374 17.1848 0 19.957C0.00887584 23.1483 1.2851 26.2063 3.54981 28.4629C5.81451 30.7195 8.88357 31.9912 12.0863 32C13.5743 32.0216 15.0517 31.7483 16.4328 31.1961C17.8139 30.6439 19.0711 29.8238 20.1313 28.7833C21.1916 27.7429 22.0338 26.5029 22.609 25.1353C23.1842 23.7678 23.481 22.3 23.482 20.8172H23.1367C22.2279 23.0136 20.6599 24.8764 18.6475 26.1505V19.0968L21.4101 16.8602V16.6882L18.8201 14.4516V9.29032C19.4947 9.32387 20.1689 9.21909 20.8011 8.98248C21.4334 8.74586 22.0101 8.38245 22.4957 7.91475C22.9813 7.44704 23.3653 6.885 23.6241 6.26341C23.8828 5.64182 24.0108 4.97393 24 4.30108ZM8.97842 23.2258L6.90647 24.2581C5.54134 22.3596 4.87096 20.052 5.00719 17.7204C4.99748 16.4971 5.17208 15.2792 5.52518 14.1075L9.15108 12.5591L8.97842 23.2258Z" fill="black"/>
</svg>
