<svg width="36" height="14" viewBox="0 0 36 14" fill="none" xmlns="http://www.w3.org/2000/svg">
<path d="M14.6373 10.3037C14.6373 10.0117 14.8276 9.88125 15.0834 9.88125C15.2202 9.88125 15.3213 9.91231 15.4105 9.9558V9.01772C15.2737 8.94938 15.0834 8.91211 14.8871 8.91211C14.0484 8.91211 13.5548 9.42774 13.5548 10.2788V10.3596H13.1562V11.2728H13.5548V13.4658H14.6373V11.2728H15.3689V10.3596H14.6373V10.3037Z" fill="#2D0326"/>
<path d="M16.8883 13.4651V10.3589H15.7998V13.4651H16.8883ZM16.9537 9.48293C16.9537 9.14745 16.686 8.85547 16.3411 8.85547C16.008 8.85547 15.7344 9.14124 15.7344 9.48293C15.7344 9.82461 16.008 10.1104 16.3411 10.1104C16.686 10.1104 16.9537 9.8184 16.9537 9.48293Z" fill="#2D0326"/>
<path d="M18.4244 11.8141C18.4244 11.4911 18.579 11.3109 18.817 11.3109C19.0549 11.3109 19.1976 11.4849 19.1976 11.8017V13.4666H20.2861V11.4911C20.2861 10.7394 19.8935 10.2734 19.2511 10.2734C18.8883 10.2734 18.5909 10.435 18.4244 10.7394V10.3604H17.3359V13.4666H18.4244V11.8141Z" fill="#2D0326"/>
<path d="M22.0704 10.2969C21.1708 10.2969 20.5938 11.1107 20.5938 11.9245C20.5938 12.8316 21.2266 13.5522 22.058 13.5522C22.6785 13.5522 22.9143 13.1732 22.9143 13.1732V13.4714H23.9628V10.3714H22.9143V10.651C22.9143 10.651 22.6475 10.2969 22.0704 10.2969ZM22.2938 11.2971C22.7157 11.2971 22.9267 11.6263 22.9267 11.9245C22.9267 12.2476 22.6971 12.5644 22.2938 12.5644C21.965 12.5644 21.6609 12.2911 21.6609 11.937C21.6609 11.5829 21.9029 11.2971 22.2938 11.2971Z" fill="#2D0326"/>
<path d="M25.5572 11.8141C25.5572 11.4911 25.7119 11.3109 25.9498 11.3109C26.1877 11.3109 26.3304 11.4849 26.3304 11.8017V13.4666H27.4189V11.4911C27.4189 10.7394 27.0263 10.2734 26.384 10.2734C26.0211 10.2734 25.7237 10.435 25.5572 10.7394V10.3604H24.4688V13.4666H25.5572V11.8141Z" fill="#2D0326"/>
<path d="M27.7422 11.9135C27.7422 12.9199 28.4321 13.5536 29.3303 13.5536C29.5622 13.5536 29.812 13.5039 30.044 13.3797V12.3484C29.8775 12.4726 29.699 12.5348 29.5028 12.5348C29.1221 12.5348 28.8425 12.2863 28.8425 11.9135C28.8425 11.5408 29.1221 11.2923 29.5028 11.2923C29.6931 11.2923 29.8715 11.3482 30.044 11.4662V10.435C29.8358 10.3293 29.5801 10.2734 29.3481 10.2734C28.4143 10.2734 27.7422 10.963 27.7422 11.9135Z" fill="#2D0326"/>
<path d="M32.418 12.3732C32.305 12.5658 32.1623 12.6466 31.9244 12.6466C31.6389 12.6466 31.401 12.4664 31.3772 12.1993H33.4351C33.4411 12.1434 33.447 12.0688 33.447 11.9694C33.447 10.9444 32.8225 10.2734 31.8946 10.2734C30.9965 10.2734 30.3125 10.9754 30.3125 11.9135C30.3125 12.8889 30.9787 13.5536 31.9303 13.5536C32.6024 13.5536 33.108 13.2554 33.3519 12.7149L32.418 12.3732ZM31.3831 11.547C31.4069 11.3171 31.6091 11.1432 31.8887 11.1432C32.1682 11.1432 32.3705 11.3047 32.3942 11.547H31.3831Z" fill="#2D0326"/>
<path d="M0 2.42969H2.14176L3.38889 5.62033L4.65219 2.42969H6.73755L3.59747 9.98297H1.49889L2.35844 7.98147L0 2.42969Z" fill="#5F01D1"/>
<path d="M8.90775 2.30273C7.29855 2.30273 6.28125 3.74594 6.28125 5.18315C6.28125 6.80043 7.39659 8.08264 8.87722 8.08264C9.98172 8.08264 10.3982 7.40971 10.3982 7.40971V7.93391H12.2662V2.42978H10.3982V2.93016C10.3982 2.93016 9.93355 2.30273 8.90775 2.30273ZM9.30509 4.07154C10.0476 4.07154 10.4308 4.65906 10.4308 5.1892C10.4308 5.76005 10.0203 6.32025 9.30509 6.32025C8.71237 6.32025 8.17674 5.83587 8.17674 5.21349C8.17674 4.5823 8.60758 4.07154 9.30509 4.07154Z" fill="#5F01D1"/>
<path d="M12.9062 7.93452V0H14.8601V2.94986C14.8601 2.94986 15.3242 2.30406 16.2961 2.30406C17.4851 2.30406 18.1816 3.1899 18.1816 4.45572V7.93452H16.2421V4.93227C16.2421 4.50389 16.038 4.09005 15.5758 4.09005C15.1053 4.09005 14.8601 4.51016 14.8601 4.93227V7.93452H12.9062Z" fill="#5F01D1"/>
<path d="M21.5183 2.30273C19.6754 2.30273 18.5781 3.70404 18.5781 5.20539C18.5781 6.91397 19.9067 8.08199 21.5253 8.08199C23.094 8.08199 24.4667 6.96697 24.4667 5.23406C24.4667 3.33794 23.0295 2.30273 21.5183 2.30273ZM21.5359 4.08709C22.1868 4.08709 22.6373 4.62927 22.6373 5.20744C22.6373 5.70058 22.2176 6.30881 21.5359 6.30881C20.9113 6.30881 20.4425 5.80777 20.4425 5.20204C20.4425 4.61853 20.8322 4.08709 21.5359 4.08709Z" fill="#5F01D1"/>
<path d="M27.7214 2.30273C25.8786 2.30273 24.7812 3.70404 24.7812 5.20539C24.7812 6.91397 26.1099 8.08199 27.7284 8.08199C29.2972 8.08199 30.6699 6.96697 30.6699 5.23406C30.6699 3.33794 29.2326 2.30273 27.7214 2.30273ZM27.739 4.08709C28.39 4.08709 28.8404 4.62927 28.8404 5.20744C28.8404 5.70058 28.4207 6.30881 27.739 6.30881C27.1144 6.30881 26.6457 5.80777 26.6457 5.20204C26.6457 4.61853 27.0354 4.08709 27.739 4.08709Z" fill="#5F01D1"/>
<path d="M32.2115 8.04993C32.928 8.04993 33.5089 7.46905 33.5089 6.7525C33.5089 6.03596 32.928 5.45508 32.2115 5.45508C31.4949 5.45508 30.9141 6.03596 30.9141 6.7525C30.9141 7.46905 31.4949 8.04993 32.2115 8.04993Z" fill="#5F01D1"/>
<path d="M33.9373 4.97992H31.6016L33.6745 0H36.0015L33.9373 4.97992Z" fill="#5F01D1"/>
</svg>
