<svg preserveAspectRatio="none" width="100%" height="100%" overflow="visible" style="display: block;" viewBox="0 0 30.4315 26" fill="none" xmlns="http://www.w3.org/2000/svg">
<g id="Group 1">
<path id="Vector" d="M12.8034 0.00108385C12.8034 0.602331 12.8511 1.10608 12.7817 1.59249C12.7525 1.79941 12.5109 2.02149 12.3127 2.14607C11.3517 2.75599 10.3085 3.24349 9.41259 3.94332C6.5136 6.20964 4.79544 9.19313 4.70119 13.0693C4.67519 14.1689 5.08036 14.4451 6.00335 14.015C8.67159 12.7779 11.5413 13.5037 13.0721 15.8025C14.7415 18.3115 14.5064 21.6525 12.5055 23.843C9.951 26.6401 5.74552 26.7246 2.84545 24.051C1.10887 22.4498 0.283376 20.3828 0.0775434 18.0309C-0.612536 10.154 3.33836 3.66057 10.5306 0.808164C11.2423 0.526499 11.9714 0.294666 12.8034 0.00108385Z" fill="var(--fill-0, #059669)"/>
<path id="Vector_2" d="M29.0533 0.00108385C29.0533 0.602331 29.101 1.10608 29.0317 1.59249C29.0024 1.79941 28.7608 2.02149 28.5626 2.14607C27.6017 2.75599 26.5584 3.24349 25.6625 3.94332C22.7635 6.20964 21.0454 9.19313 20.9511 13.0693C20.9251 14.1689 21.3303 14.4451 22.2533 14.015C24.9215 12.7779 27.7913 13.5037 29.322 15.8025C30.9914 18.3115 30.7563 21.6525 28.7554 23.843C26.2009 26.6401 21.9954 26.7246 19.0954 24.051C17.3588 22.4498 16.5333 20.3828 16.3275 18.0309C15.6374 10.154 19.5883 3.66057 26.7805 0.808164C27.4923 0.526499 28.2213 0.294666 29.0533 0.00108385Z" fill="var(--fill-0, #059669)"/>
</g>
</svg>
