<svg preserveAspectRatio="none" width="100%" height="100%" overflow="visible" style="display: block;" viewBox="0 0 60 60" fill="none" xmlns="http://www.w3.org/2000/svg">
<g id="Group 15">
<circle id="Ellipse 8" cx="30" cy="30" r="30" fill="var(--fill-0, #059669)" fill-opacity="0.1"/>
<path id="Vector" fill-rule="evenodd" clip-rule="evenodd" d="M33.0624 23.2629C32.7565 23.2629 32.4632 23.3749 32.2469 23.5741C32.0306 23.7734 31.9091 24.0437 31.9091 24.3255C31.9091 24.6073 32.0306 24.8775 32.2469 25.0768C32.4632 25.2761 32.7565 25.388 33.0624 25.388H36.7316V27.547H33.0624C32.7565 27.547 32.4632 27.6589 32.2469 27.8582C32.0306 28.0574 31.9091 28.3277 31.9091 28.6095C31.9091 28.8913 32.0306 29.1616 32.2469 29.3608C32.4632 29.5601 32.7565 29.672 33.0624 29.672H36.6945C36.5111 31.3122 35.674 32.8315 34.3452 33.9361C33.0164 35.0406 31.2901 35.652 29.5003 35.652C27.7105 35.652 25.9843 35.0406 24.6554 33.9361C23.3266 32.8315 22.4895 31.3122 22.3061 29.672H25.9379C26.2438 29.672 26.5372 29.5601 26.7535 29.3608C26.9698 29.1616 27.0913 28.8913 27.0913 28.6095C27.0913 28.3277 26.9698 28.0574 26.7535 27.8582C26.5372 27.6589 26.2438 27.547 25.9379 27.547H22.2687V25.388H25.9379C26.2438 25.388 26.5372 25.2761 26.7535 25.0768C26.9698 24.8775 27.0913 24.6073 27.0913 24.3255C27.0913 24.0437 26.9698 23.7734 26.7535 23.5741C26.5372 23.3749 26.2438 23.2629 25.9379 23.2629H22.2687V21.1039H25.9379C26.2438 21.1039 26.5372 20.992 26.7535 20.7927C26.9698 20.5934 27.0913 20.3232 27.0913 20.0414C27.0913 19.7596 26.9698 19.4893 26.7535 19.2901C26.5372 19.0908 26.2438 18.9788 25.9379 18.9788H22.3061C22.4899 17.3389 23.327 15.8199 24.6558 14.7156C25.9846 13.6113 27.7107 13 29.5003 13C31.2899 13 33.016 13.6113 34.3448 14.7156C35.6736 15.8199 36.5108 17.3389 36.6945 18.9788H33.0624C32.7565 18.9788 32.4632 19.0908 32.2469 19.2901C32.0306 19.4893 31.9091 19.7596 31.9091 20.0414C31.9091 20.3232 32.0306 20.5934 32.2469 20.7927C32.4632 20.992 32.7565 21.1039 33.0624 21.1039H36.7316V23.2629H33.0624ZM28.8454 39.5668C29.063 39.5781 29.2807 39.5841 29.5014 39.5841C29.719 39.5841 29.9367 39.5783 30.1543 39.5668V41.5453H28.8454V39.5668ZM41 28.9895C41 28.7078 40.8785 28.4377 40.6623 28.2385C40.4461 28.0393 40.1529 27.9274 39.8471 27.9274C39.5414 27.9274 39.2481 28.0393 39.0319 28.2385C38.8157 28.4377 38.6943 28.7078 38.6943 28.9895C38.6943 33.6599 34.569 37.4593 29.5017 37.4593C24.4311 37.4593 20.3058 33.6599 20.3058 28.9895C20.307 28.8493 20.2781 28.7103 20.2207 28.5805C20.1633 28.4506 20.0786 28.3325 19.9714 28.233C19.8642 28.1335 19.7367 28.0545 19.5963 28.0006C19.4558 27.9467 19.3051 27.919 19.1529 27.919C19.0008 27.919 18.8501 27.9467 18.7096 28.0006C18.5691 28.0545 18.4416 28.1335 18.3345 28.233C18.2273 28.3325 18.1426 28.4506 18.0852 28.5805C18.0278 28.7103 17.9988 28.8493 18 28.9895C18 33.8893 21.6288 38.0217 26.5396 39.2276V41.5453H24.0706C23.3809 41.5457 22.7195 41.7983 22.2318 42.2476C21.744 42.6968 21.4697 43.306 21.4689 43.9414V45.9375C21.4689 46.2192 21.5904 46.4894 21.8066 46.6886C22.0228 46.8879 22.316 46.9999 22.6218 47H36.3783C36.6841 46.9999 36.9773 46.8879 37.1935 46.6886C37.4097 46.4894 37.5312 46.2192 37.5312 45.9375V43.9415C37.5305 43.3061 37.2561 42.6969 36.7683 42.2476C36.2806 41.7984 35.6192 41.5458 34.9295 41.5453H32.4605V39.2277C37.3713 38.0216 41 33.8892 41 28.9895Z" fill="var(--fill-0, #0E7159)"/>
</g>
</svg>
