<svg preserveAspectRatio="none" width="100%" height="100%" overflow="visible" style="display: block;" viewBox="0 0 60 60" fill="none" xmlns="http://www.w3.org/2000/svg">
<g id="Group 17">
<circle id="Ellipse 4" cx="30" cy="30" r="30" fill="var(--fill-0, #059669)" fill-opacity="0.1"/>
<path id="Vector" d="M42.55 31H16.45C15.6492 31 15 31.7163 15 32.6V33.4C15 34.2837 15.6492 35 16.45 35H42.55C43.3508 35 44 34.2837 44 33.4V32.6C44 31.7163 43.3508 31 42.55 31Z" fill="var(--fill-0, #0E7159)"/>
<path id="Vector_2" d="M18 36L18.7863 40.9302C18.9195 41.7873 19.3595 42.5686 20.0262 43.132C20.6929 43.6954 21.542 44.0034 22.4191 44H36.5361C37.4073 44.0023 38.2509 43.6978 38.9156 43.141C39.5804 42.5842 40.0228 41.8115 40.1637 40.9614L41 36H18Z" fill="var(--fill-0, #0E7159)"/>
<path id="Vector_3" d="M34.9099 26.2033C33.9934 25.2971 32.8531 24.6385 31.6 24.2915C32.6268 23.8232 33.4597 23.0258 33.9611 22.031C34.4626 21.0361 34.6025 19.9035 34.3577 18.8202C34.113 17.7369 33.4982 16.7678 32.6151 16.0732C31.7319 15.3786 30.6333 15 29.5008 15C28.3682 15 27.2696 15.3786 26.3865 16.0732C25.5033 16.7678 24.8886 17.7369 24.6438 18.8202C24.3991 19.9035 24.539 21.0361 25.0404 22.031C25.5418 23.0258 26.3748 23.8232 27.4015 24.2915C26.0553 24.6698 24.8404 25.4017 23.8883 26.4079C22.9362 27.4141 22.2832 28.6563 22 30H37C36.7044 28.5589 35.9767 27.237 34.9099 26.2033Z" fill="var(--fill-0, #0E7159)"/>
<path id="Vector_4" d="M39.9907 26.3457L39.3014 25.5965C39.4249 25.2578 39.4543 24.8872 39.3861 24.5305C39.3178 24.1738 39.1549 23.8467 38.9174 23.5895L37.9426 22.5303C37.6141 22.1899 37.1776 22 36.7238 22C36.2699 22 35.8334 22.1899 35.5049 22.5303C35.3449 22.7042 35.2179 22.9107 35.1312 23.1379C35.0446 23.3652 35 23.6088 35 23.8547C35 24.1007 35.0446 24.3443 35.1312 24.5716C35.2179 24.7988 35.3449 25.0053 35.5049 25.1792L36.4797 26.2385C36.7164 26.4966 37.0174 26.6737 37.3456 26.7478C37.6739 26.822 38.0149 26.79 38.3266 26.6558L39.016 27.405C39.4023 27.8274 39.6198 28.3983 39.6212 28.9939V30H41V28.9939C41.0013 28.5019 40.9127 28.0145 40.7395 27.5599C40.5662 27.1053 40.3117 26.6926 39.9907 26.3457Z" fill="var(--fill-0, #0E7159)"/>
<path id="Vector_5" d="M23.4978 22.5301C23.1693 22.1898 22.7329 22 22.279 22C21.8251 22 21.3887 22.1898 21.0602 22.5301L20.0854 23.589C19.8479 23.846 19.6849 24.173 19.6167 24.5296C19.5485 24.8861 19.5779 25.2566 19.7014 25.5952L19.012 26.344C18.6902 26.691 18.435 27.1039 18.2613 27.5589C18.0875 28.0138 17.9987 28.5017 18 28.9943V30H19.3788V28.9943C19.3802 28.3989 19.5977 27.8282 19.984 27.4059L20.6734 26.6571C20.9851 26.7912 21.3261 26.8232 21.6544 26.7491C21.9826 26.6749 22.2836 26.4979 22.5203 26.2399L23.4951 25.181C23.6551 25.0072 23.7821 24.8008 23.8688 24.5736C23.9554 24.3464 24 24.1029 24 23.857C24 23.6111 23.9554 23.3677 23.8688 23.1405C23.7821 22.9133 23.6551 22.7069 23.4951 22.5331L23.4978 22.5301Z" fill="var(--fill-0, #0E7159)"/>
</g>
</svg>
