<svg preserveAspectRatio="none" width="100%" height="100%" overflow="visible" style="display: block;" viewBox="0 0 60 60" fill="none" xmlns="http://www.w3.org/2000/svg">
<g id="Group 13">
<circle id="Ellipse 5" cx="30" cy="30" r="30" fill="var(--fill-0, #059669)" fill-opacity="0.1"/>
<g id="Group">
<path id="Vector" d="M34.6412 17.3438L35.3738 16.4279C35.5848 16.1641 35.6259 15.8027 35.4796 15.4982C35.3333 15.1937 35.0254 15 34.6875 15H30C29.5146 15 29.1211 15.3935 29.1211 15.8789V22.6327L25.0216 26.2767C24.834 26.4435 24.7266 26.6826 24.7266 26.9336V45H27.3633V40.6055C27.3633 40.1201 27.7568 39.7266 28.2422 39.7266H31.7578C32.2432 39.7266 32.6367 40.1201 32.6367 40.6055V45H35.2734V26.9336C35.2734 26.6825 35.1661 26.4435 34.9785 26.2767L30.8789 22.6327V19.6875H34.6875C35.0254 19.6875 35.3333 19.4938 35.4797 19.1893C35.6261 18.8848 35.5849 18.5234 35.3738 18.2595L34.6412 17.3438ZM29.1211 37.0898C29.1211 37.5752 28.7276 37.9688 28.2422 37.9688C27.7568 37.9688 27.3633 37.5752 27.3633 37.0898V35.332C27.3633 34.8466 27.7568 34.4531 28.2422 34.4531C28.7276 34.4531 29.1211 34.8466 29.1211 35.332V37.0898ZM32.6367 37.0898C32.6367 37.5752 32.2432 37.9688 31.7578 37.9688C31.2724 37.9688 30.8789 37.5752 30.8789 37.0898V35.332C30.8789 34.8466 31.2724 34.4531 31.7578 34.4531C32.2432 34.4531 32.6367 34.8466 32.6367 35.332V37.0898ZM32.6367 30.0586C32.6367 31.5125 31.4539 32.6953 30 32.6953C28.5461 32.6953 27.3633 31.5125 27.3633 30.0586C27.3633 28.6047 28.5461 27.4219 30 27.4219C31.4539 27.4219 32.6367 28.6047 32.6367 30.0586Z" fill="var(--fill-0, #0E7159)"/>
<path id="Vector_2" d="M29.1211 41.4844H30.8789V45H29.1211V41.4844Z" fill="var(--fill-0, #0E7159)"/>
<path id="Vector_3" d="M30 30.9375C30.4854 30.9375 30.8789 30.544 30.8789 30.0586C30.8789 29.5732 30.4854 29.1797 30 29.1797C29.5146 29.1797 29.1211 29.5732 29.1211 30.0586C29.1211 30.544 29.5146 30.9375 30 30.9375Z" fill="var(--fill-0, #0E7159)"/>
<path id="Vector_4" d="M44.1211 43.2422H43.1836V30.9375H44.1211C44.6065 30.9375 45 30.544 45 30.0586C45 29.5732 44.6065 29.1797 44.1211 29.1797H37.0312V45H44.1211C44.6065 45 45 44.6065 45 44.1211C45 43.6357 44.6065 43.2422 44.1211 43.2422ZM40.9863 40.6055C40.9863 41.0909 40.5928 41.4844 40.1074 41.4844C39.622 41.4844 39.2285 41.0909 39.2285 40.6055V38.8477C39.2285 38.3623 39.622 37.9688 40.1074 37.9688C40.5928 37.9688 40.9863 38.3623 40.9863 38.8477V40.6055ZM40.9863 35.332C40.9863 35.8174 40.5928 36.2109 40.1074 36.2109C39.622 36.2109 39.2285 35.8174 39.2285 35.332V33.5742C39.2285 33.0888 39.622 32.6953 40.1074 32.6953C40.5928 32.6953 40.9863 33.0888 40.9863 33.5742V35.332Z" fill="var(--fill-0, #0E7159)"/>
<path id="Vector_5" d="M15 30.0586C15 30.544 15.3935 30.9375 15.8789 30.9375H16.8164V43.2422H15.8789C15.3935 43.2422 15 43.6357 15 44.1211C15 44.6065 15.3935 45 15.8789 45H22.9688V29.1797H15.8789C15.3935 29.1797 15 29.5732 15 30.0586ZM19.0137 33.5742C19.0137 33.0888 19.4072 32.6953 19.8926 32.6953C20.378 32.6953 20.7715 33.0888 20.7715 33.5742V35.332C20.7715 35.8174 20.378 36.2109 19.8926 36.2109C19.4072 36.2109 19.0137 35.8174 19.0137 35.332V33.5742ZM19.0137 38.8477C19.0137 38.3623 19.4072 37.9688 19.8926 37.9688C20.378 37.9688 20.7715 38.3623 20.7715 38.8477V40.6055C20.7715 41.0909 20.378 41.4844 19.8926 41.4844C19.4072 41.4844 19.0137 41.0909 19.0137 40.6055V38.8477Z" fill="var(--fill-0, #0E7159)"/>
</g>
</g>
</svg>
