<svg preserveAspectRatio="none" width="100%" height="100%" overflow="visible" style="display: block;" viewBox="0 0 38 38" fill="none" xmlns="http://www.w3.org/2000/svg">
<g id="raphael:dollar">
<path id="Vector" d="M18.9994 1.74219C9.4673 1.74219 1.74023 9.46925 1.74023 19.0013C1.74023 28.5334 9.4673 36.2604 18.9994 36.2604C28.5314 36.2604 36.2585 28.5334 36.2585 19.0013C36.2585 9.46925 28.5314 1.74219 18.9994 1.74219ZM20.4897 28.3588V30.7896H18.1645V28.3861C14.3491 27.8636 12.6783 24.7286 12.6783 24.7286L15.0533 22.7419C15.0533 22.7419 16.5697 25.3817 19.3129 25.3817C20.8281 25.3817 21.9776 24.5707 21.9776 23.1849C21.9776 19.9454 13.2495 20.3384 13.2495 14.3285C13.2495 11.716 15.3157 9.83381 18.1634 9.3885V6.96006H20.4885V9.3885C22.474 9.64975 24.8252 10.6948 24.8252 12.9427V14.6669H21.7425V13.8309C21.7425 12.9688 20.644 12.3941 19.415 12.3941C17.8475 12.3941 16.6992 13.1778 16.6992 14.2751C16.6992 17.5929 25.4273 16.7831 25.4273 23.0804C25.4273 25.6691 23.494 27.9135 20.4897 28.3588Z" fill="var(--fill-0, #C2D2E2)"/>
</g>
</svg>
