<svg preserveAspectRatio="none" width="100%" height="100%" overflow="visible" style="display: block;" viewBox="0 0 27.6857 38" fill="none" xmlns="http://www.w3.org/2000/svg">
<g id="Group">
<path id="Vector" d="M25.5143 3.25714H26.6C27.1999 3.25714 27.6857 2.77129 27.6857 2.17143V1.08571C27.6857 0.485857 27.1999 0 26.6 0H1.08571C0.485857 0 0 0.485857 0 1.08571V2.17143C0 2.77129 0.485857 3.25714 1.08571 3.25714H2.17143C2.17143 12.92 9.87401 13.2967 10.3143 19C9.87401 24.7032 2.17143 25.08 2.17143 34.7429H1.08571C0.485857 34.7429 0 35.2287 0 35.8286V36.9143C0 37.5141 0.485857 38 1.08571 38H26.6C27.1999 38 27.6857 37.5141 27.6857 36.9143V35.8286C27.6857 35.2287 27.1999 34.7429 26.6 34.7429H25.5143C25.5143 25.08 17.8118 24.7032 17.3714 19C17.8117 13.2967 25.5143 12.92 25.5143 3.25714ZM22.223 33.8417C22.4732 34.2 22.2132 34.6923 21.7756 34.6923H13.8429H5.82534C5.40518 34.6923 5.13974 34.2319 5.35632 33.8721C7.47945 30.3468 10.0651 27.7009 13.4786 25.1131C13.6876 24.9546 13.9878 24.9709 14.1821 25.1473C17.6483 28.2997 20.1101 30.8158 22.223 33.8417ZM13.8 16.3497L8.0109 10.5803C8.0109 10.5803 10.9206 11.7637 13.2875 11.7637C15.6543 11.7637 17.6765 10.0868 19.4522 10.0868C21.2279 10.0868 13.8 16.3497 13.8 16.3497Z" fill="var(--fill-0, #C2D2E2)"/>
</g>
</svg>
