<svg preserveAspectRatio="none" width="100%" height="100%" overflow="visible" style="display: block;" viewBox="0 0 38 38" fill="none" xmlns="http://www.w3.org/2000/svg">
<g id="office 1">
<path id="Vector" d="M32.6808 34.9747H31.1608V5.55476C31.1687 4.3428 30.693 3.17722 29.8381 2.31379C28.9832 1.45036 27.8189 0.959607 26.6008 0.949219H11.4008C10.1826 0.959607 9.01836 1.45036 8.16347 2.31379C7.30858 3.17722 6.83289 4.3428 6.84078 5.55476V34.9747H5.32078C4.91765 34.9747 4.53103 35.1341 4.24598 35.4177C3.96092 35.7013 3.80078 36.0859 3.80078 36.487C3.80078 36.888 3.96092 37.2727 4.24598 37.5563C4.53103 37.8399 4.91765 37.9992 5.32078 37.9992H32.6808C33.0839 37.9992 33.4705 37.8399 33.7556 37.5563C34.0406 37.2727 34.2008 36.888 34.2008 36.487C34.2008 36.0859 34.0406 35.7013 33.7556 35.4177C33.4705 35.1341 33.0839 34.9747 32.6808 34.9747ZM13.6808 6.9982H15.2008C15.6039 6.9982 15.9905 7.15752 16.2756 7.44112C16.5606 7.72473 16.7208 8.10937 16.7208 8.51044C16.7208 8.91151 16.5606 9.29616 16.2756 9.57976C15.9905 9.86336 15.6039 10.0227 15.2008 10.0227H13.6808C13.2777 10.0227 12.891 9.86336 12.606 9.57976C12.3209 9.29616 12.1608 8.91151 12.1608 8.51044C12.1608 8.10937 12.3209 7.72473 12.606 7.44112C12.891 7.15752 13.2777 6.9982 13.6808 6.9982ZM13.6808 13.8033H15.2008C15.6039 13.8033 15.9905 13.9626 16.2756 14.2462C16.5606 14.5298 16.7208 14.9145 16.7208 15.3155C16.7208 15.7166 16.5606 16.1013 16.2756 16.3849C15.9905 16.6685 15.6039 16.8278 15.2008 16.8278H13.6808C13.2777 16.8278 12.891 16.6685 12.606 16.3849C12.3209 16.1013 12.1608 15.7166 12.1608 15.3155C12.1608 14.9145 12.3209 14.5298 12.606 14.2462C12.891 13.9626 13.2777 13.8033 13.6808 13.8033ZM13.6808 23.6329C13.2777 23.6329 12.891 23.4736 12.606 23.19C12.3209 22.9064 12.1608 22.5217 12.1608 22.1206C12.1608 21.7196 12.3209 21.3349 12.606 21.0513C12.891 20.7677 13.2777 20.6084 13.6808 20.6084H15.2008C15.6039 20.6084 15.9905 20.7677 16.2756 21.0513C16.5606 21.3349 16.7208 21.7196 16.7208 22.1206C16.7208 22.5217 16.5606 22.9064 16.2756 23.19C15.9905 23.4736 15.6039 23.6329 15.2008 23.6329H13.6808ZM22.0408 35.2469H15.9608V30.1C16.0086 29.5443 16.275 29.0299 16.7019 28.6685C17.1288 28.307 17.6818 28.1278 18.2408 28.1696H19.7608C20.3198 28.1278 20.8728 28.307 21.2997 28.6685C21.7266 29.0299 21.9929 29.5443 22.0408 30.1V35.2469ZM24.3208 23.6329H22.8008C22.3977 23.6329 22.011 23.4736 21.726 23.19C21.4409 22.9064 21.2808 22.5217 21.2808 22.1206C21.2808 21.7196 21.4409 21.3349 21.726 21.0513C22.011 20.7677 22.3977 20.6084 22.8008 20.6084H24.3208C24.7239 20.6084 25.1105 20.7677 25.3956 21.0513C25.6806 21.3349 25.8408 21.7196 25.8408 22.1206C25.8408 22.5217 25.6806 22.9064 25.3956 23.19C25.1105 23.4736 24.7239 23.6329 24.3208 23.6329ZM24.3208 16.8278H22.8008C22.3977 16.8278 22.011 16.6685 21.726 16.3849C21.4409 16.1013 21.2808 15.7166 21.2808 15.3155C21.2808 14.9145 21.4409 14.5298 21.726 14.2462C22.011 13.9626 22.3977 13.8033 22.8008 13.8033H24.3208C24.7239 13.8033 25.1105 13.9626 25.3956 14.2462C25.6806 14.5298 25.8408 14.9145 25.8408 15.3155C25.8408 15.7166 25.6806 16.1013 25.3956 16.3849C25.1105 16.6685 24.7239 16.8278 24.3208 16.8278ZM24.3208 10.0227H22.8008C22.3977 10.0227 22.011 9.86336 21.726 9.57976C21.4409 9.29616 21.2808 8.91151 21.2808 8.51044C21.2808 8.10937 21.4409 7.72473 21.726 7.44112C22.011 7.15752 22.3977 6.9982 22.8008 6.9982H24.3208C24.7239 6.9982 25.1105 7.15752 25.3956 7.44112C25.6806 7.72473 25.8408 8.10937 25.8408 8.51044C25.8408 8.91151 25.6806 9.29616 25.3956 9.57976C25.1105 9.86336 24.7239 10.0227 24.3208 10.0227Z" fill="var(--fill-0, #0E7159)"/>
</g>
</svg>
