<svg width="21" height="21" viewBox="0 0 21 21" fill="none" xmlns="http://www.w3.org/2000/svg">
<path d="M8.3125 1.75C8.87687 1.75 9.40188 1.9145 9.84375 2.198V18.5894C9.27519 19.0186 8.58212 19.2505 7.86975 19.25C6.3595 19.25 5.07413 18.2114 4.69613 16.8C3.8743 16.6683 3.12631 16.248 2.58638 15.6146C2.04644 14.9812 1.74992 14.1761 1.75 13.3438V13.125C1.75 11.7583 2.534 10.5753 3.67588 9.9995C3.21818 9.56241 2.89192 9.00596 2.734 8.3931C2.57607 7.78024 2.59278 7.13542 2.78223 6.53156C2.97168 5.9277 3.32632 5.3889 3.80603 4.97609C4.28574 4.56328 4.8714 4.29294 5.49675 4.19563C5.59268 3.51714 5.93038 2.89611 6.44772 2.44677C6.96507 1.99743 7.62726 1.75 8.3125 1.75ZM12.6875 1.75C13.3727 1.75 14.0349 1.99743 14.5523 2.44677C15.0696 2.89611 15.4073 3.51714 15.5033 4.19563C16.1285 4.29307 16.7141 4.56351 17.1937 4.97638C17.6733 5.38924 18.0278 5.92805 18.2172 6.53189C18.4065 7.13573 18.4231 7.7805 18.2652 8.39329C18.1072 9.00609 17.7809 9.56246 17.3232 9.9995C17.9024 10.2909 18.3892 10.7374 18.7294 11.2893C19.0696 11.8412 19.2498 12.4767 19.25 13.125V13.3438C19.2501 14.1761 18.9536 14.9812 18.4136 15.6146C17.8737 16.248 17.1257 16.6683 16.3039 16.8C15.9267 18.2114 14.6405 19.25 13.1302 19.25C12.4179 19.2505 11.7248 19.0186 11.1562 18.5894V2.198C11.613 1.90471 12.1447 1.74918 12.6875 1.75Z" fill="white"/>
</svg>
