<svg xmlns="http://www.w3.org/2000/svg" width="21" height="21" viewBox="0 0 21 21" fill="none">
  <path d="M19.5906 1.5693C19.5831 1.53302 19.5654 1.49963 19.5396 1.47304C19.5138 1.44646 19.481 1.42777 19.445 1.41918C17.0427 0.831835 11.492 2.92486 8.48476 5.9309C7.94839 6.46293 7.45941 7.0407 7.02338 7.65765C6.09601 7.57562 5.16865 7.64412 4.37828 7.98865C2.14826 8.97015 1.49898 11.5312 1.3181 12.6328C1.30784 12.6931 1.31171 12.755 1.32941 12.8136C1.3471 12.8721 1.37814 12.9258 1.42008 12.9703C1.46202 13.0148 1.51372 13.049 1.57111 13.0701C1.6285 13.0913 1.69001 13.0989 1.75082 13.0922L5.33189 12.6972C5.33444 12.9672 5.35073 13.2369 5.3807 13.5053C5.39872 13.6916 5.48144 13.8657 5.61449 13.9974L7.00123 15.3809C7.13307 15.5137 7.30714 15.5964 7.49341 15.6147C7.76025 15.6445 8.02843 15.6608 8.29691 15.6635L7.90398 19.2401C7.89743 19.3008 7.90504 19.3623 7.92623 19.4197C7.94742 19.477 7.98161 19.5287 8.02611 19.5706C8.07062 19.6125 8.12422 19.6436 8.18274 19.6613C8.24125 19.679 8.30307 19.6829 8.36336 19.6728C9.46299 19.4964 12.0285 18.8471 13.0043 16.6171C13.3488 15.8267 13.4194 14.9039 13.3398 13.981C13.9582 13.545 14.5375 13.0558 15.0711 12.5192C18.0878 9.51771 20.1689 4.09094 19.5906 1.5693ZM12.0613 8.93857C11.7859 8.66329 11.5982 8.31249 11.5222 7.93056C11.4461 7.54862 11.485 7.15271 11.634 6.79289C11.7829 6.43307 12.0353 6.12552 12.3591 5.90913C12.6829 5.69275 13.0635 5.57725 13.453 5.57725C13.8424 5.57725 14.2231 5.69275 14.5469 5.90913C14.8707 6.12552 15.123 6.43307 15.272 6.79289C15.421 7.15271 15.4599 7.54862 15.3838 7.93056C15.3077 8.31249 15.1201 8.66329 14.8446 8.93857C14.662 9.1215 14.4451 9.26661 14.2063 9.36562C13.9675 9.46464 13.7115 9.5156 13.453 9.5156C13.1945 9.5156 12.9385 9.46464 12.6997 9.36562C12.4609 9.26661 12.244 9.1215 12.0613 8.93857Z" fill="white"/>
  <path d="M6.90703 16.3829C6.68227 16.608 6.32174 16.6958 5.88779 16.7709C4.91285 16.937 4.05193 16.0945 4.22707 15.1089C4.29393 14.7353 4.49162 14.2115 4.61467 14.0885C4.64156 14.0621 4.65946 14.0279 4.66583 13.9908C4.6722 13.9536 4.6667 13.9155 4.65013 13.8816C4.63355 13.8478 4.60674 13.8201 4.5735 13.8023C4.54026 13.7846 4.50229 13.7778 4.46496 13.7829C3.91976 13.8496 3.41256 14.0968 3.02408 14.4851C2.0598 15.4502 1.96875 19.0313 1.96875 19.0313C1.96875 19.0313 5.55187 18.9402 6.51615 17.9751C6.90563 17.5869 7.15312 17.0789 7.21875 16.533C7.23393 16.3615 7.02516 16.2594 6.90703 16.3829Z" fill="black"/>
</svg>
