<svg preserveAspectRatio="none" width="100%" height="100%" overflow="visible" style="display: block;" viewBox="0 0 34 38" fill="none" xmlns="http://www.w3.org/2000/svg">
<g id="fa-solid:user-tie" clip-path="url(#clip0_0_76)">
<path id="Vector" d="M17 19C22.3656 19 26.7143 14.7473 26.7143 9.5C26.7143 4.25273 22.3656 0 17 0C11.6344 0 7.28571 4.25273 7.28571 9.5C7.28571 14.7473 11.6344 19 17 19ZM24.2705 21.4195L20.6429 35.625L18.2143 25.5312L20.6429 21.375H13.3571L15.7857 25.5312L13.3571 35.625L9.72946 21.4195C4.3183 21.6719 0 25.9988 0 31.35V34.4375C0 36.4043 1.6317 38 3.64286 38H30.3571C32.3683 38 34 36.4043 34 34.4375V31.35C34 25.9988 29.6817 21.6719 24.2705 21.4195Z" fill="var(--fill-0, #C2D2E2)"/>
</g>
<defs>
<clipPath id="clip0_0_76">
<rect width="34" height="38" fill="white"/>
</clipPath>
</defs>
</svg>
