<svg width="32" height="32" viewBox="0 0 32 32" fill="none" xmlns="http://www.w3.org/2000/svg">
<path d="M16.3668 6.48079C17.591 7.70499 18.2787 9.36535 18.2787 11.0966C18.2787 12.8279 17.591 14.4883 16.3668 15.7125C15.1426 16.9367 13.4822 17.6244 11.7509 17.6244C10.0196 17.6244 8.35928 16.9367 7.13509 15.7125C5.91089 14.4883 5.22314 12.8279 5.22314 11.0966C5.22314 9.36535 5.91089 7.70499 7.13509 6.48079C8.35928 5.25659 10.0196 4.56885 11.7509 4.56885C13.4822 4.56885 15.1426 5.25659 16.3668 6.48079Z" stroke="#2FAC66" stroke-width="1.7029" stroke-linecap="round" stroke-linejoin="round"/>
<path d="M20.8896 26.762C20.8896 24.3383 19.9267 22.0137 18.2129 20.2999C16.499 18.586 14.1745 17.6232 11.7507 17.6232C9.32692 17.6232 7.00241 18.586 5.28853 20.2999C3.57466 22.0137 2.61182 24.3383 2.61182 26.762M22.1952 13.0537H28.7229M22.1952 16.9704H28.7229M26.1118 20.887H28.7229" stroke="#2FAC66" stroke-width="1.7029" stroke-linecap="round" stroke-linejoin="round"/>
</svg>
