<svg preserveAspectRatio="none" width="100%" height="100%" overflow="visible" style="display: block;" viewBox="0 0 38 38" fill="none" xmlns="http://www.w3.org/2000/svg">
<g id="Group">
<path id="Vector" d="M19 7.125C19 6.18933 19.1843 5.26283 19.5424 4.39838C19.9004 3.53394 20.4252 2.74848 21.0869 2.08686C21.7485 1.42525 22.5339 0.900423 23.3984 0.542358C24.2628 0.184294 25.1893 0 26.125 0C27.0607 0 27.9872 0.184294 28.8516 0.542358C29.7161 0.900423 30.5015 1.42525 31.1631 2.08686C31.8248 2.74848 32.3496 3.53394 32.7076 4.39838C33.0657 5.26283 33.25 6.18933 33.25 7.125C33.25 9.01467 32.4993 10.8269 31.1631 12.1631C29.8269 13.4993 28.0147 14.25 26.125 14.25C24.2353 14.25 22.4231 13.4993 21.0869 12.1631C19.7507 10.8269 19 9.01467 19 7.125ZM0 30.875C0 28.9853 0.750667 27.1731 2.08686 25.8369C3.42306 24.5007 5.23533 23.75 7.125 23.75H16.625C18.5147 23.75 20.3269 24.5007 21.6631 25.8369C22.9993 27.1731 23.75 28.9853 23.75 30.875V38H0V30.875Z" fill="var(--fill-0, #C2D2E2)"/>
<path id="Vector_2" d="M21.0734 16.6321C20.5836 18.5213 19.5238 20.2138 18.0381 21.4795C20.2877 21.8179 22.3412 22.9523 23.8252 24.6765C25.3092 26.4006 26.1253 28.6001 26.125 30.875H38V23.75C38 21.8603 37.2493 20.0481 35.9131 18.7119C34.5769 17.3757 32.7647 16.625 30.875 16.625H21.375C21.2753 16.625 21.1747 16.6274 21.0734 16.6321ZM11.875 7.125C9.98533 7.125 8.17306 7.87567 6.83686 9.21186C5.50067 10.5481 4.75 12.3603 4.75 14.25C4.75 16.1397 5.50067 17.9519 6.83686 19.2881C8.17306 20.6243 9.98533 21.375 11.875 21.375C13.7647 21.375 15.5769 20.6243 16.9131 19.2881C18.2493 17.9519 19 16.1397 19 14.25C19 12.3603 18.2493 10.5481 16.9131 9.21186C15.5769 7.87567 13.7647 7.125 11.875 7.125Z" fill="var(--fill-0, #C2D2E2)"/>
</g>
</svg>
