<svg preserveAspectRatio="none" width="100%" height="100%" overflow="visible" style="display: block;" viewBox="0 0 40.2356 38" fill="none" xmlns="http://www.w3.org/2000/svg">
<g id="Group">
<path id="Vector" d="M17.8038 29.2568V31.3034H36.347V29.2568C36.347 28.9467 36.0369 28.6366 35.7268 28.6366H18.424C18.0519 28.6366 17.8038 28.8847 17.8038 29.2568Z" fill="var(--fill-0, #C2D2E2)"/>
<path id="Vector_2" d="M37.1528 32.5423H17.1832L15.3227 34.961C15.2607 35.0851 15.1987 35.2091 15.1987 35.3332V37.3798C15.1987 37.6899 15.5087 38 15.8188 38H38.5172C38.8893 38 39.1373 37.6899 39.1373 37.3798V35.3332C39.1373 35.2091 39.0753 35.0851 39.0133 34.961L37.1528 32.5423Z" fill="var(--fill-0, #C2D2E2)"/>
<path id="Vector_3" d="M22.1436 14.8684L0.499597 33.6603C-0.306628 34.4046 -0.0585583 35.707 0.685649 36.5753C1.49187 37.4435 2.73222 37.8777 3.53845 37.1955L25.1825 18.4035L22.1436 14.8684Z" fill="var(--fill-0, #C2D2E2)"/>
<path id="Vector_4" d="M22.1457 13.0032L27.0451 18.647C27.2311 18.3989 27.4172 18.2129 27.6032 18.0268L33.867 12.5691C34.1151 12.383 34.3011 12.197 34.5492 12.0729L29.6498 6.49117C29.4638 6.73924 29.2777 6.9253 29.0917 7.11136L22.8279 12.5691C22.6419 12.6931 22.3938 12.8792 22.1457 13.0032Z" fill="var(--fill-0, #C2D2E2)"/>
<path id="Vector_5" d="M16.9943 9.03698C17.3665 9.47112 17.9246 9.71919 18.4828 9.78121C18.4207 10.3394 18.6068 10.8976 18.9789 11.3317C19.7851 12.262 21.1495 12.324 22.0177 11.5178L28.2815 6.06003C29.2118 5.25378 29.2738 3.88935 28.5296 3.02107C28.1575 2.58693 27.6613 2.33885 27.0412 2.27684C27.1032 1.71866 26.9171 1.16048 26.545 0.726344C25.7388 -0.141931 24.3744 -0.265971 23.5062 0.540285L17.1804 5.99801C16.3122 6.80427 16.1881 8.1687 16.9943 9.03698Z" fill="var(--fill-0, #C2D2E2)"/>
<path id="Vector_6" d="M39.6952 15.9834C39.3231 15.5492 38.765 15.3011 38.2068 15.2391C38.2688 14.6809 38.0828 14.1228 37.7107 13.6886C36.9044 12.7583 35.5401 12.6963 34.6718 13.4406L28.4081 18.8983C27.4778 19.7045 27.4158 21.069 28.222 21.9372C28.5941 22.3714 29.1523 22.6195 29.7104 22.6815C29.6484 23.2397 29.8345 23.7978 30.2066 24.232C30.9508 25.1002 32.3152 25.2243 33.2454 24.418L39.5092 19.0223C40.3774 18.2781 40.5014 16.9137 39.6952 15.9834Z" fill="var(--fill-0, #C2D2E2)"/>
</g>
</svg>
