<svg preserveAspectRatio="none" width="100%" height="100%" overflow="visible" style="display: block;" viewBox="0 0 95 45" fill="none" xmlns="http://www.w3.org/2000/svg">
<g id="Frame 2147239747">
<circle id="Ellipse 12" cx="22.5" cy="22.5" r="22.5" fill="var(--fill-0, #D9D9D9)" fill-opacity="0.4"/>
<circle id="Ellipse 13" cx="72.5" cy="22.5" r="22.5" transform="rotate(-180 72.5 22.5)" fill="var(--fill-0, #059669)"/>
<path id="Vector" d="M25.2273 13.6873C25.3176 13.5918 25.3881 13.4795 25.4349 13.3567C25.4817 13.234 25.5039 13.1033 25.5002 12.972C25.4965 12.8407 25.4669 12.7114 25.4133 12.5915C25.3596 12.4716 25.2828 12.3635 25.1873 12.2733C25.0919 12.183 24.9796 12.1125 24.8568 12.0657C24.7341 12.0189 24.6034 11.9967 24.4721 12.0004C24.3408 12.0041 24.2115 12.0337 24.0916 12.0873C23.9717 12.141 23.8636 12.2178 23.7733 12.3133L15.2733 21.3133C15.0978 21.4989 15 21.7447 15 22.0003C15 22.2558 15.0978 22.5016 15.2733 22.6873L23.7733 31.6883C23.863 31.7858 23.9711 31.8646 24.0914 31.92C24.2117 31.9754 24.3419 32.0064 24.4743 32.0111C24.6067 32.0158 24.7387 31.9942 24.8626 31.9474C24.9866 31.9007 25.1 31.8298 25.1963 31.7388C25.2927 31.6479 25.3699 31.5387 25.4237 31.4176C25.4775 31.2965 25.5067 31.166 25.5095 31.0335C25.5124 30.9011 25.489 30.7694 25.4405 30.6461C25.3921 30.5228 25.3196 30.4103 25.2273 30.3153L17.3753 22.0003L25.2273 13.6873Z" fill="var(--fill-0, black)" fill-opacity="0.4"/>
<path id="Vector_2" d="M69.7727 31.3128C69.6824 31.4082 69.6119 31.5205 69.5651 31.6433C69.5183 31.766 69.4961 31.8967 69.4998 32.028C69.5035 32.1593 69.5331 32.2886 69.5867 32.4085C69.6404 32.5284 69.7172 32.6365 69.8127 32.7268C69.9081 32.817 70.0204 32.8875 70.1432 32.9343C70.2659 32.9811 70.3966 33.0033 70.5279 32.9996C70.6592 32.9959 70.7885 32.9663 70.9084 32.9127C71.0283 32.859 71.1364 32.7822 71.2267 32.6868L79.7267 23.6868C79.9022 23.5011 80 23.2553 80 22.9998C80 22.7442 79.9022 22.4984 79.7267 22.3128L71.2267 13.3118C71.137 13.2142 71.0289 13.1354 70.9086 13.08C70.7883 13.0246 70.6581 12.9936 70.5257 12.9889C70.3933 12.9842 70.2613 13.0058 70.1374 13.0526C70.0134 13.0993 69.9 13.1702 69.8037 13.2612C69.7073 13.3521 69.6301 13.4613 69.5763 13.5824C69.5225 13.7035 69.4933 13.834 69.4905 13.9665C69.4876 14.0989 69.511 14.2306 69.5595 14.3539C69.6079 14.4772 69.6804 14.5897 69.7727 14.6848L77.6247 22.9998L69.7727 31.3128Z" fill="var(--fill-0, white)"/>
</g>
</svg>
