<svg width="38" height="32" viewBox="0 0 38 32" fill="none" xmlns="http://www.w3.org/2000/svg">
<path d="M15.7581 0.001335C15.7581 0.741331 15.8167 1.36133 15.7314 1.95999C15.6954 2.21466 15.3981 2.48799 15.1541 2.64132C13.9714 3.39198 12.6874 3.99198 11.5847 4.85331C8.01676 7.64263 5.9021 11.3146 5.7861 16.0853C5.7541 17.4386 6.25276 17.7786 7.38876 17.2493C10.6727 15.7266 14.2047 16.6199 16.0887 19.4493C18.1434 22.5372 17.854 26.6492 15.3914 29.3452C12.2474 32.7879 7.07143 32.8919 3.50211 29.6012C1.36478 27.6305 0.348788 25.0866 0.095456 22.1919C-0.753872 12.4973 4.10878 4.50531 12.9607 0.994665C13.8367 0.647998 14.7341 0.362667 15.7581 0.001335Z" fill="#059669"/>
<path d="M35.7581 0.001335C35.7581 0.741331 35.8167 1.36133 35.7314 1.95999C35.6954 2.21466 35.3981 2.48799 35.1541 2.64132C33.9714 3.39198 32.6874 3.99198 31.5847 4.85331C28.0168 7.64263 25.9021 11.3146 25.7861 16.0853C25.7541 17.4386 26.2528 17.7786 27.3888 17.2493C30.6727 15.7266 34.2047 16.6199 36.0887 19.4493C38.1434 22.5372 37.854 26.6492 35.3914 29.3452C32.2474 32.7879 27.0714 32.8919 23.5021 29.6012C21.3648 27.6305 20.3488 25.0866 20.0955 22.1919C19.2461 12.4973 24.1088 4.50531 32.9607 0.994665C33.8367 0.647998 34.7341 0.362667 35.7581 0.001335Z" fill="#059669"/>
</svg>
