<svg preserveAspectRatio="none" width="100%" height="100%" overflow="visible" style="display: block;" viewBox="0 0 30.1312 30" fill="none" xmlns="http://www.w3.org/2000/svg">
<g id="Group 2" opacity="0.4">
<path id="Vector" d="M12.6768 0.00125203C12.6768 0.694999 12.724 1.27625 12.6554 1.83749C12.6264 2.07624 12.3872 2.33249 12.1909 2.47624C11.2395 3.17999 10.2066 3.74249 9.31953 4.54998C6.4492 7.16497 4.74803 10.6075 4.65471 15.0799C4.62897 16.3487 5.03013 16.6674 5.944 16.1712C8.58586 14.7437 11.4272 15.5812 12.9428 18.2337C14.5957 21.1287 14.363 24.9836 12.3818 27.5111C9.85262 30.7386 5.68871 30.8361 2.81732 27.7511C1.09791 25.9036 0.280574 23.5186 0.0767765 20.8049C-0.60648 11.7162 3.30536 4.22373 10.4265 0.932499C11.1312 0.6075 11.8531 0.34 12.6768 0.00125203Z" fill="var(--fill-0, #DEDEDE)"/>
<path id="Vector_2" d="M28.7667 0.00125203C28.7667 0.694999 28.8139 1.27625 28.7452 1.83749C28.7163 2.07624 28.4771 2.33249 28.2808 2.47624C27.3294 3.17999 26.2964 3.74249 25.4094 4.54998C22.539 7.16497 20.8379 10.6075 20.7446 15.0799C20.7188 16.3487 21.12 16.6674 22.0338 16.1712C24.6757 14.7437 27.5171 15.5812 29.0327 18.2337C30.6856 21.1287 30.4528 24.9836 28.4717 27.5111C25.9425 30.7386 21.7786 30.8361 18.9072 27.7511C17.1878 25.9036 16.3704 23.5186 16.1666 20.8049C15.4834 11.7162 19.3952 4.22373 26.5163 0.932499C27.221 0.6075 27.9429 0.34 28.7667 0.00125203Z" fill="var(--fill-0, #DEDEDE)"/>
</g>
</svg>
