<svg preserveAspectRatio="none" width="100%" height="100%" overflow="visible" style="display: block;" viewBox="0 0 28 28" fill="none" xmlns="http://www.w3.org/2000/svg">
<g id="material-symbols:star-rounded">
<path id="Vector" d="M13.9994 20.1552L9.15774 23.0719C8.94385 23.208 8.72024 23.2663 8.48691 23.2469C8.25357 23.2274 8.04941 23.1497 7.87441 23.0135C7.69941 22.8774 7.5633 22.7075 7.46607 22.5037C7.36885 22.2999 7.34941 22.0713 7.40774 21.8177L8.69107 16.3052L4.40357 12.601C4.20913 12.426 4.0878 12.2265 4.03957 12.0025C3.99135 11.7785 4.00574 11.56 4.08274 11.3469C4.15974 11.1338 4.27641 10.9588 4.43274 10.8219C4.58907 10.685 4.80296 10.5975 5.07441 10.5594L10.7327 10.0635L12.9202 4.87188C13.0175 4.63854 13.1684 4.46354 13.3729 4.34687C13.5775 4.23021 13.7863 4.17187 13.9994 4.17188C14.2125 4.17188 14.4214 4.23021 14.6259 4.34687C14.8305 4.46354 14.9814 4.63854 15.0786 4.87188L17.2661 10.0635L22.9244 10.5594C23.1966 10.5983 23.4105 10.6858 23.5661 10.8219C23.7216 10.958 23.8383 11.133 23.9161 11.3469C23.9938 11.5608 24.0086 11.7797 23.9604 12.0037C23.9122 12.2277 23.7905 12.4268 23.5952 12.601L19.3077 16.3052L20.5911 21.8177C20.6494 22.0705 20.63 22.2992 20.5327 22.5037C20.4355 22.7083 20.2994 22.8782 20.1244 23.0135C19.9494 23.1489 19.7452 23.2267 19.5119 23.2469C19.2786 23.2671 19.055 23.2088 18.8411 23.0719L13.9994 20.1552Z" fill="var(--fill-0, #F59E0B)"/>
</g>
</svg>
