<svg width="16" height="12" viewBox="0 0 16 12" fill="none" xmlns="http://www.w3.org/2000/svg">
<path d="M15.667 1.8C15.5769 1.45931 15.3989 1.14823 15.1509 0.897872C14.9029 0.647513 14.5935 0.466641 14.2537 0.373333C12.9337 -3.97364e-08 8.00034 0 8.00034 0C8.00034 0 3.06701 -3.97364e-08 1.74701 0.373333C1.40717 0.466641 1.09778 0.647513 0.849765 0.897872C0.601746 1.14823 0.423786 1.45931 0.333674 1.8C0.104572 3.07599 -0.00700644 4.3703 0.000340444 5.66667C0.000340444 6.98 0.12034 8.28667 0.333674 9.53333C0.423786 9.87403 0.601746 10.1851 0.849765 10.4355C1.09778 10.6858 1.40717 10.8667 1.74701 10.96C3.06701 11.3333 8.00034 11.3333 8.00034 11.3333C8.00034 11.3333 12.9337 11.3333 14.2537 10.96C14.5935 10.8667 14.9029 10.6858 15.1509 10.4355C15.3989 10.1851 15.5769 9.87403 15.667 9.53333C15.8803 8.28667 16.0003 6.98 16.0003 5.66667C16.0003 4.35333 15.8803 3.04667 15.667 1.8ZM6.50034 8.01333V3.32L10.3337 5.66667L6.50034 8.01333Z" fill="#951B81"/>
</svg>
