<svg width="180" height="180" viewBox="0 0 180 180" fill="none" xmlns="http://www.w3.org/2000/svg">
<circle opacity="0.25" cx="90" cy="85" r="59.25" stroke="#079669" stroke-width="1.5"/>
<circle opacity="0.45" cx="90" cy="85" r="44.25" stroke="#079669" stroke-width="1.5"/>
<circle opacity="0.7" cx="90" cy="85" r="29.25" stroke="#079669" stroke-width="1.5"/>
<rect opacity="0.5" x="89.5" y="20" width="1" height="12" fill="#079669"/>
<rect opacity="0.5" x="89.5" y="38" width="1" height="12" fill="#079669"/>
<rect opacity="0.5" x="89.5" y="56" width="1" height="12" fill="#079669"/>
<rect opacity="0.5" x="89.5" y="74" width="1" height="12" fill="#079669"/>
<rect opacity="0.5" x="89.5" y="92" width="1" height="12" fill="#079669"/>
<rect opacity="0.5" x="89.5" y="110" width="1" height="12" fill="#079669"/>
<rect opacity="0.5" x="89.5" y="128" width="1" height="12" fill="#079669"/>
<rect opacity="0.5" x="89.5" y="146" width="1" height="12" fill="#079669"/>
<circle cx="90" cy="34.5" r="2.5" fill="#079669"/>
<circle cx="90" cy="70.5" r="2.5" fill="#079669"/>
<circle cx="90" cy="106.5" r="2.5" fill="#079669"/>
<circle cx="90" cy="142.5" r="2.5" fill="#079669"/>
<rect x="81.4844" y="87.4844" width="12.3646" height="12.3646" transform="rotate(-45 81.4844 87.4844)" fill="#079669"/>
</svg>
